<svg width="215" height="45" viewBox="0 0 215 45" fill="none" xmlns="http://www.w3.org/2000/svg">
<path d="M54.6114 21.8102C54.6114 22.9515 54.7554 24.0608 55.0434 25.1382C55.3367 26.2155 55.7634 27.2395 56.3234 28.2102C56.4087 28.3755 56.43 28.5008 56.3874 28.5862C56.3447 28.6768 56.2834 28.7488 56.2034 28.8022L55.5714 29.1862C55.1714 28.5728 54.83 27.9648 54.5474 27.3622C54.27 26.7595 54.0434 26.1542 53.8674 25.5462C53.6967 24.9382 53.5714 24.3275 53.4914 23.7142C53.4114 23.0955 53.3714 22.4608 53.3714 21.8102C53.3714 21.1648 53.4114 20.5328 53.4914 19.9142C53.5714 19.2955 53.6967 18.6848 53.8674 18.0822C54.0434 17.4742 54.27 16.8688 54.5474 16.2662C54.83 15.6635 55.1714 15.0528 55.5714 14.4342L56.2034 14.8262C56.2834 14.8795 56.3447 14.9515 56.3874 15.0422C56.43 15.1275 56.4087 15.2502 56.3234 15.4102C55.7634 16.3808 55.3367 17.4048 55.0434 18.4822C54.7554 19.5595 54.6114 20.6688 54.6114 21.8102ZM65.397 22.0102L62.133 22.0102L62.133 25.4502L60.973 25.4502L60.973 22.0102L57.725 22.0102L57.725 20.9302L60.973 20.9302L60.973 17.5142L62.133 17.5142L62.133 20.9302L65.397 20.9302L65.397 22.0102ZM74.0942 25.4902C74.2489 25.4902 74.3716 25.5355 74.4622 25.6262C74.5529 25.7168 74.5982 25.8342 74.5982 25.9782L74.5982 26.8422L66.9502 26.8422L66.9502 26.3542C66.9502 26.2528 66.9716 26.1488 67.0142 26.0422C67.0569 25.9355 67.1236 25.8368 67.2142 25.7462L70.8862 22.0582C71.1902 21.7488 71.4676 21.4528 71.7182 21.1702C71.9689 20.8822 72.1822 20.5942 72.3582 20.3062C72.5342 20.0182 72.6702 19.7275 72.7662 19.4342C72.8622 19.1355 72.9102 18.8182 72.9102 18.4822C72.9102 18.1462 72.8569 17.8528 72.7502 17.6022C72.6436 17.3462 72.4969 17.1355 72.3102 16.9702C72.1289 16.8048 71.9129 16.6822 71.6622 16.6022C71.4116 16.5168 71.1422 16.4742 70.8542 16.4742C70.5609 16.4742 70.2916 16.5168 70.0462 16.6022C69.8009 16.6875 69.5822 16.8075 69.3902 16.9622C69.2036 17.1115 69.0462 17.2902 68.9182 17.4982C68.7902 17.7062 68.6996 17.9355 68.6462 18.1862C68.5822 18.3728 68.4942 18.4982 68.3822 18.5622C68.2756 18.6208 68.1236 18.6368 67.9262 18.6102L67.1822 18.4822C67.2569 17.9595 67.4009 17.4982 67.6142 17.0982C67.8329 16.6928 68.1049 16.3542 68.4302 16.0822C68.7609 15.8102 69.1369 15.6048 69.5582 15.4662C69.9796 15.3222 70.4356 15.2502 70.9262 15.2502C71.4116 15.2502 71.8649 15.3222 72.2862 15.4662C72.7076 15.6102 73.0729 15.8208 73.3822 16.0982C73.6916 16.3702 73.9342 16.7035 74.1102 17.0982C74.2862 17.4928 74.3742 17.9408 74.3742 18.4422C74.3742 18.8688 74.3102 19.2662 74.1822 19.6342C74.0542 19.9968 73.8809 20.3435 73.6622 20.6742C73.4436 21.0048 73.1902 21.3275 72.9022 21.6422C72.6196 21.9568 72.3182 22.2742 71.9982 22.5942L68.9742 25.6822C69.1876 25.6235 69.4036 25.5782 69.6222 25.5462C69.8409 25.5088 70.0516 25.4902 70.2542 25.4902L74.0942 25.4902ZM83.3755 25.4902C83.5302 25.4902 83.6528 25.5355 83.7435 25.6262C83.8342 25.7168 83.8795 25.8342 83.8795 25.9782L83.8795 26.8422L76.2315 26.8422L76.2315 26.3542C76.2315 26.2528 76.2528 26.1488 76.2955 26.0422C76.3382 25.9355 76.4048 25.8368 76.4955 25.7462L80.1675 22.0582C80.4715 21.7488 80.7488 21.4528 80.9995 21.1702C81.2502 20.8822 81.4635 20.5942 81.6395 20.3062C81.8155 20.0182 81.9515 19.7275 82.0475 19.4342C82.1435 19.1355 82.1915 18.8182 82.1915 18.4822C82.1915 18.1462 82.1382 17.8528 82.0315 17.6022C81.9248 17.3462 81.7782 17.1355 81.5915 16.9702C81.4102 16.8048 81.1942 16.6822 80.9435 16.6022C80.6928 16.5168 80.4235 16.4742 80.1355 16.4742C79.8422 16.4742 79.5728 16.5168 79.3275 16.6022C79.0822 16.6875 78.8635 16.8075 78.6715 16.9622C78.4848 17.1115 78.3275 17.2902 78.1995 17.4982C78.0715 17.7062 77.9808 17.9355 77.9275 18.1862C77.8635 18.3728 77.7755 18.4982 77.6635 18.5622C77.5568 18.6208 77.4048 18.6368 77.2075 18.6102L76.4635 18.4822C76.5382 17.9595 76.6822 17.4982 76.8955 17.0982C77.1142 16.6928 77.3862 16.3542 77.7115 16.0822C78.0422 15.8102 78.4182 15.6048 78.8395 15.4662C79.2608 15.3222 79.7168 15.2502 80.2075 15.2502C80.6928 15.2502 81.1462 15.3222 81.5675 15.4662C81.9888 15.6102 82.3542 15.8208 82.6635 16.0982C82.9728 16.3702 83.2155 16.7035 83.3915 17.0982C83.5675 17.4928 83.6555 17.9408 83.6555 18.4422C83.6555 18.8688 83.5915 19.2662 83.4635 19.6342C83.3355 19.9968 83.1622 20.3435 82.9435 20.6742C82.7248 21.0048 82.4715 21.3275 82.1835 21.6422C81.9008 21.9568 81.5995 22.2742 81.2795 22.5942L78.2555 25.6822C78.4688 25.6235 78.6848 25.5782 78.9035 25.5462C79.1222 25.5088 79.3328 25.4902 79.5355 25.4902L83.3755 25.4902ZM87.0727 21.8102C87.0727 20.6688 86.9261 19.5595 86.6327 18.4822C86.3447 17.4048 85.9207 16.3808 85.3607 15.4102C85.3181 15.3302 85.2914 15.2608 85.2807 15.2022C85.2701 15.1382 85.2727 15.0848 85.2887 15.0422C85.3047 14.9942 85.3287 14.9542 85.3607 14.9222C85.3981 14.8848 85.4381 14.8528 85.4807 14.8262L86.1127 14.4342C86.5127 15.0528 86.8514 15.6635 87.1287 16.2662C87.4114 16.8688 87.6381 17.4742 87.8087 18.0822C87.9847 18.6848 88.1127 19.2955 88.1927 19.9142C88.2727 20.5328 88.3127 21.1648 88.3127 21.8102C88.3127 22.4608 88.2727 23.0955 88.1927 23.7142C88.1127 24.3275 87.9847 24.9382 87.8087 25.5462C87.6381 26.1542 87.4114 26.7595 87.1287 27.3622C86.8514 27.9648 86.5127 28.5728 86.1127 29.1862L85.4807 28.8022C85.4381 28.7755 85.3981 28.7435 85.3607 28.7062C85.3287 28.6742 85.3047 28.6342 85.2887 28.5862C85.2727 28.5435 85.2701 28.4902 85.2807 28.4262C85.2914 28.3622 85.3181 28.2902 85.3607 28.2102C85.9207 27.2395 86.3447 26.2155 86.6327 25.1382C86.9261 24.0608 87.0727 22.9515 87.0727 21.8102ZM101.264 25.7542L101.264 26.8422L95.1201 26.8422L95.1201 25.7542L97.5761 25.7542L97.5761 17.9382C97.5761 17.7035 97.5841 17.4662 97.6001 17.2262L95.5601 18.9782C95.4908 19.0368 95.4214 19.0742 95.3521 19.0902C95.2828 19.1008 95.2188 19.1008 95.1601 19.0902C95.1014 19.0795 95.0454 19.0582 94.9921 19.0262C94.9441 18.9942 94.9068 18.9595 94.8801 18.9222L94.4321 18.3062L97.8481 15.3542L99.0081 15.3542L99.0081 25.7542L101.264 25.7542ZM110.297 25.4902C110.452 25.4902 110.575 25.5355 110.665 25.6262C110.756 25.7168 110.801 25.8342 110.801 25.9782L110.801 26.8422L103.153 26.8422L103.153 26.3542C103.153 26.2528 103.175 26.1488 103.217 26.0422C103.26 25.9355 103.327 25.8368 103.417 25.7462L107.089 22.0582C107.393 21.7488 107.671 21.4528 107.921 21.1702C108.172 20.8822 108.385 20.5942 108.561 20.3062C108.737 20.0182 108.873 19.7275 108.969 19.4342C109.065 19.1355 109.113 18.8182 109.113 18.4822C109.113 18.1462 109.06 17.8528 108.953 17.6022C108.847 17.3462 108.7 17.1355 108.513 16.9702C108.332 16.8048 108.116 16.6822 107.865 16.6022C107.615 16.5168 107.345 16.4742 107.057 16.4742C106.764 16.4742 106.495 16.5168 106.249 16.6022C106.004 16.6875 105.785 16.8075 105.593 16.9622C105.407 17.1115 105.249 17.2902 105.121 17.4982C104.993 17.7062 104.903 17.9355 104.849 18.1862C104.785 18.3728 104.697 18.4982 104.585 18.5622C104.479 18.6208 104.327 18.6368 104.129 18.6102L103.385 18.4822C103.46 17.9595 103.604 17.4982 103.817 17.0982C104.036 16.6928 104.308 16.3542 104.633 16.0822C104.964 15.8102 105.34 15.6048 105.761 15.4662C106.183 15.3222 106.639 15.2502 107.129 15.2502C107.615 15.2502 108.068 15.3222 108.489 15.4662C108.911 15.6102 109.276 15.8208 109.585 16.0982C109.895 16.3702 110.137 16.7035 110.313 17.0982C110.489 17.4928 110.577 17.9408 110.577 18.4422C110.577 18.8688 110.513 19.2662 110.385 19.6342C110.257 19.9968 110.084 20.3435 109.865 20.6742C109.647 21.0048 109.393 21.3275 109.105 21.6422C108.823 21.9568 108.521 22.2742 108.201 22.5942L105.177 25.6822C105.391 25.6235 105.607 25.5782 105.825 25.5462C106.044 25.5088 106.255 25.4902 106.457 25.4902L110.297 25.4902ZM112.723 18.4822C112.797 17.9595 112.941 17.4982 113.155 17.0982C113.368 16.6928 113.637 16.3542 113.963 16.0822C114.293 15.8102 114.669 15.6048 115.091 15.4662C115.517 15.3222 115.976 15.2502 116.467 15.2502C116.952 15.2502 117.4 15.3195 117.811 15.4582C118.221 15.5968 118.573 15.7942 118.867 16.0502C119.165 16.3062 119.397 16.6155 119.563 16.9782C119.728 17.3408 119.811 17.7435 119.811 18.1862C119.811 18.5488 119.763 18.8742 119.667 19.1622C119.576 19.4448 119.443 19.6928 119.267 19.9062C119.096 20.1195 118.888 20.3008 118.643 20.4502C118.397 20.5995 118.123 20.7222 117.819 20.8182C118.565 21.0102 119.125 21.3408 119.499 21.8102C119.877 22.2742 120.067 22.8555 120.067 23.5542C120.067 24.0822 119.965 24.5568 119.763 24.9782C119.565 25.3995 119.293 25.7595 118.947 26.0582C118.6 26.3515 118.195 26.5782 117.731 26.7382C117.272 26.8928 116.779 26.9702 116.251 26.9702C115.643 26.9702 115.123 26.8955 114.691 26.7462C114.259 26.5915 113.893 26.3808 113.595 26.1142C113.296 25.8475 113.051 25.5328 112.859 25.1702C112.667 24.8022 112.504 24.4048 112.371 23.9782L112.987 23.7222C113.147 23.6528 113.301 23.6342 113.451 23.6662C113.605 23.6982 113.717 23.7862 113.787 23.9302C113.856 24.0795 113.941 24.2582 114.043 24.4662C114.149 24.6742 114.293 24.8742 114.475 25.0662C114.656 25.2582 114.885 25.4208 115.163 25.5542C115.445 25.6875 115.803 25.7542 116.235 25.7542C116.635 25.7542 116.984 25.6902 117.283 25.5622C117.587 25.4288 117.837 25.2582 118.035 25.0502C118.237 24.8422 118.389 24.6102 118.491 24.3542C118.592 24.0982 118.643 23.8448 118.643 23.5942C118.643 23.2848 118.603 23.0022 118.523 22.7462C118.443 22.4902 118.293 22.2688 118.075 22.0822C117.856 21.8955 117.555 21.7488 117.171 21.6422C116.792 21.5355 116.304 21.4822 115.707 21.4822L115.707 20.4502C116.197 20.4448 116.613 20.3915 116.955 20.2902C117.301 20.1888 117.581 20.0502 117.795 19.8742C118.013 19.6982 118.171 19.4875 118.267 19.2422C118.368 18.9968 118.419 18.7248 118.419 18.4262C118.419 18.0955 118.365 17.8075 118.259 17.5622C118.157 17.3168 118.016 17.1142 117.835 16.9542C117.653 16.7942 117.437 16.6742 117.187 16.5942C116.941 16.5142 116.675 16.4742 116.387 16.4742C116.099 16.4742 115.829 16.5168 115.579 16.6022C115.333 16.6875 115.115 16.8075 114.923 16.9622C114.736 17.1115 114.579 17.2902 114.451 17.4982C114.323 17.7062 114.232 17.9355 114.179 18.1862C114.109 18.3728 114.021 18.4982 113.915 18.5622C113.813 18.6208 113.664 18.6368 113.467 18.6102L112.723 18.4822ZM126.058 21.4422L130.01 21.4422L130.01 22.6502L126.058 22.6502L126.058 21.4422ZM140.929 22.7062L140.929 17.9782C140.929 17.8395 140.934 17.6875 140.945 17.5222C140.956 17.3568 140.972 17.1888 140.993 17.0182L136.817 22.7062L140.929 22.7062ZM143.913 22.7062L143.913 23.5222C143.913 23.6075 143.886 23.6795 143.833 23.7382C143.785 23.7968 143.708 23.8262 143.601 23.8262L142.177 23.8262L142.177 26.8422L140.929 26.8422L140.929 23.8262L135.841 23.8262C135.734 23.8262 135.641 23.7968 135.561 23.7382C135.486 23.6742 135.438 23.5968 135.417 23.5062L135.273 22.7782L140.849 15.3782L142.177 15.3782L142.177 22.7062L143.913 22.7062ZM147.266 19.7062C147.863 19.5782 148.413 19.5142 148.914 19.5142C149.511 19.5142 150.039 19.6022 150.498 19.7782C150.957 19.9542 151.338 20.1968 151.642 20.5062C151.951 20.8155 152.183 21.1808 152.338 21.6022C152.498 22.0235 152.578 22.4822 152.578 22.9782C152.578 23.5862 152.471 24.1355 152.258 24.6262C152.05 25.1168 151.759 25.5382 151.386 25.8902C151.018 26.2368 150.583 26.5035 150.082 26.6902C149.581 26.8768 149.039 26.9702 148.458 26.9702C148.122 26.9702 147.799 26.9355 147.49 26.8662C147.181 26.8022 146.89 26.7142 146.618 26.6022C146.351 26.4902 146.103 26.3622 145.874 26.2182C145.645 26.0742 145.442 25.9222 145.266 25.7622L145.706 25.1542C145.802 25.0155 145.927 24.9462 146.082 24.9462C146.189 24.9462 146.309 24.9888 146.442 25.0742C146.575 25.1542 146.738 25.2448 146.93 25.3462C147.122 25.4475 147.346 25.5408 147.602 25.6262C147.863 25.7062 148.173 25.7462 148.53 25.7462C148.93 25.7462 149.29 25.6822 149.61 25.5542C149.93 25.4262 150.205 25.2448 150.434 25.0102C150.663 24.7702 150.839 24.4848 150.962 24.1542C151.085 23.8235 151.146 23.4528 151.146 23.0422C151.146 22.6848 151.093 22.3622 150.986 22.0742C150.885 21.7862 150.727 21.5408 150.514 21.3382C150.306 21.1355 150.045 20.9782 149.73 20.8662C149.415 20.7542 149.047 20.6982 148.626 20.6982C148.338 20.6982 148.037 20.7222 147.722 20.7702C147.413 20.8182 147.095 20.8955 146.77 21.0022L145.874 20.7382L146.794 15.3782L152.226 15.3782L152.226 16.0022C152.226 16.2048 152.162 16.3728 152.034 16.5062C151.911 16.6342 151.698 16.6982 151.394 16.6982L147.794 16.6982L147.266 19.7062ZM158.275 25.7862C158.659 25.7862 159.006 25.7248 159.315 25.6022C159.63 25.4795 159.897 25.3088 160.115 25.0902C160.339 24.8715 160.51 24.6128 160.627 24.3142C160.75 24.0155 160.811 23.6902 160.811 23.3382C160.811 22.9648 160.753 22.6288 160.635 22.3302C160.518 22.0262 160.35 21.7702 160.131 21.5622C159.918 21.3488 159.662 21.1862 159.363 21.0742C159.065 20.9622 158.737 20.9062 158.379 20.9062C157.995 20.9062 157.649 20.9728 157.339 21.1062C157.03 21.2342 156.766 21.4102 156.547 21.6342C156.334 21.8528 156.169 22.1088 156.051 22.4022C155.939 22.6902 155.883 22.9915 155.883 23.3062C155.883 23.6742 155.937 24.0102 156.043 24.3142C156.15 24.6182 156.305 24.8795 156.507 25.0982C156.715 25.3168 156.966 25.4875 157.259 25.6102C157.558 25.7275 157.897 25.7862 158.275 25.7862ZM157.443 19.6742C157.342 19.8022 157.243 19.9275 157.147 20.0502C157.057 20.1675 156.969 20.2848 156.883 20.4022C157.155 20.2155 157.454 20.0715 157.779 19.9702C158.105 19.8688 158.459 19.8182 158.843 19.8182C159.307 19.8182 159.745 19.8955 160.155 20.0502C160.566 20.1995 160.923 20.4208 161.227 20.7142C161.537 21.0022 161.782 21.3595 161.963 21.7862C162.145 22.2075 162.235 22.6902 162.235 23.2342C162.235 23.7622 162.139 24.2528 161.947 24.7062C161.755 25.1595 161.486 25.5542 161.139 25.8902C160.798 26.2262 160.385 26.4902 159.899 26.6822C159.419 26.8742 158.889 26.9702 158.307 26.9702C157.731 26.9702 157.209 26.8795 156.739 26.6982C156.27 26.5115 155.87 26.2502 155.539 25.9142C155.214 25.5728 154.961 25.1622 154.779 24.6822C154.603 24.1968 154.515 23.6555 154.515 23.0582C154.515 22.5568 154.625 22.0235 154.843 21.4582C155.067 20.8875 155.422 20.2795 155.907 19.6342L158.819 15.7222C158.894 15.6262 158.995 15.5462 159.123 15.4822C159.257 15.4128 159.409 15.3782 159.579 15.3782L160.843 15.3782L157.443 19.6742ZM171.581 15.3782L171.581 16.0182C171.581 16.1995 171.559 16.3489 171.517 16.4662C171.479 16.5835 171.442 16.6822 171.405 16.7622L166.653 26.3382C166.583 26.4768 166.487 26.5968 166.365 26.6982C166.242 26.7942 166.079 26.8422 165.877 26.8422L164.853 26.8422L169.669 17.3862C169.738 17.2529 169.81 17.1302 169.885 17.0182C169.959 16.9062 170.039 16.7995 170.125 16.6982L164.141 16.6982C164.05 16.6982 163.97 16.6635 163.901 16.5942C163.831 16.5195 163.797 16.4368 163.797 16.3462L163.797 15.3782L171.581 15.3782ZM177.308 21.4422L181.26 21.4422L181.26 22.6502L177.308 22.6502L177.308 21.4422ZM188.603 18.7462C188.603 19.1089 188.654 19.4342 188.755 19.7222C188.862 20.0049 189.011 20.2449 189.203 20.4422C189.4 20.6395 189.638 20.7889 189.915 20.8902C190.198 20.9915 190.512 21.0422 190.859 21.0422C191.243 21.0422 191.582 20.9809 191.875 20.8582C192.174 20.7302 192.424 20.5622 192.627 20.3542C192.83 20.1462 192.984 19.9062 193.091 19.6342C193.198 19.3622 193.251 19.0795 193.251 18.7862C193.251 18.4289 193.192 18.1062 193.075 17.8182C192.963 17.5249 192.806 17.2769 192.603 17.0742C192.4 16.8715 192.158 16.7169 191.875 16.6102C191.598 16.4982 191.291 16.4422 190.955 16.4422C190.603 16.4422 190.283 16.5009 189.995 16.6182C189.707 16.7302 189.459 16.8875 189.251 17.0902C189.043 17.2929 188.883 17.5355 188.771 17.8182C188.659 18.1009 188.603 18.4102 188.603 18.7462ZM191.931 22.2742C192.048 22.1195 192.158 21.9729 192.259 21.8342C192.36 21.6955 192.456 21.5569 192.547 21.4182C192.254 21.6529 191.923 21.8315 191.555 21.9542C191.187 22.0769 190.798 22.1382 190.387 22.1382C189.955 22.1382 189.544 22.0662 189.155 21.9222C188.771 21.7782 188.432 21.5675 188.139 21.2902C187.846 21.0075 187.611 20.6635 187.435 20.2582C187.264 19.8475 187.179 19.3782 187.179 18.8502C187.179 18.3489 187.272 17.8795 187.459 17.4422C187.646 17.0049 187.907 16.6235 188.243 16.2982C188.579 15.9729 188.979 15.7169 189.443 15.5302C189.907 15.3435 190.416 15.2502 190.971 15.2502C191.52 15.2502 192.019 15.3409 192.467 15.5222C192.915 15.7035 193.299 15.9569 193.619 16.2822C193.939 16.6075 194.184 16.9969 194.355 17.4502C194.531 17.9035 194.619 18.4049 194.619 18.9542C194.619 19.2849 194.587 19.5995 194.523 19.8982C194.464 20.1915 194.376 20.4822 194.259 20.7702C194.147 21.0529 194.008 21.3355 193.843 21.6182C193.678 21.8955 193.491 22.1809 193.283 22.4742L190.491 26.5062C190.422 26.6075 190.323 26.6902 190.195 26.7542C190.067 26.8129 189.92 26.8422 189.755 26.8422L188.443 26.8422L191.931 22.2742ZM204.42 21.1142C204.42 22.1169 204.311 22.9862 204.092 23.7222C203.879 24.4529 203.585 25.0582 203.212 25.5382C202.839 26.0182 202.396 26.3755 201.884 26.6102C201.377 26.8449 200.833 26.9622 200.252 26.9622C199.665 26.9622 199.119 26.8449 198.612 26.6102C198.111 26.3755 197.673 26.0182 197.3 25.5382C196.927 25.0582 196.633 24.4529 196.42 23.7222C196.207 22.9862 196.1 22.1169 196.1 21.1142C196.1 20.1115 196.207 19.2422 196.42 18.5062C196.633 17.7702 196.927 17.1622 197.3 16.6822C197.673 16.1969 198.111 15.8369 198.612 15.6022C199.119 15.3675 199.665 15.2502 200.252 15.2502C200.833 15.2502 201.377 15.3675 201.884 15.6022C202.396 15.8369 202.839 16.1969 203.212 16.6822C203.585 17.1622 203.879 17.7702 204.092 18.5062C204.311 19.2422 204.42 20.1115 204.42 21.1142ZM202.94 21.1142C202.94 20.2395 202.865 19.5062 202.716 18.9142C202.572 18.3169 202.375 17.8369 202.124 17.4742C201.879 17.1115 201.593 16.8529 201.268 16.6982C200.943 16.5382 200.604 16.4582 200.252 16.4582C199.9 16.4582 199.561 16.5382 199.236 16.6982C198.911 16.8529 198.625 17.1115 198.38 17.4742C198.135 17.8369 197.937 18.3169 197.788 18.9142C197.644 19.5062 197.572 20.2395 197.572 21.1142C197.572 21.9889 197.644 22.7222 197.788 23.3142C197.937 23.9062 198.135 24.3835 198.38 24.7462C198.625 25.1089 198.911 25.3702 199.236 25.5302C199.561 25.6849 199.9 25.7622 200.252 25.7622C200.604 25.7622 200.943 25.6849 201.268 25.5302C201.593 25.3702 201.879 25.1089 202.124 24.7462C202.375 24.3835 202.572 23.9062 202.716 23.3142C202.865 22.7222 202.94 21.9889 202.94 21.1142ZM213.701 21.1142C213.701 22.1169 213.592 22.9862 213.373 23.7222C213.16 24.4529 212.867 25.0582 212.493 25.5382C212.12 26.0182 211.677 26.3755 211.165 26.6102C210.659 26.8449 210.115 26.9622 209.533 26.9622C208.947 26.9622 208.4 26.8449 207.893 26.6102C207.392 26.3755 206.955 26.0182 206.581 25.5382C206.208 25.0582 205.915 24.4529 205.701 23.7222C205.488 22.9862 205.381 22.1169 205.381 21.1142C205.381 20.1115 205.488 19.2422 205.701 18.5062C205.915 17.7702 206.208 17.1622 206.581 16.6822C206.955 16.1969 207.392 15.8369 207.893 15.6022C208.4 15.3675 208.947 15.2502 209.533 15.2502C210.115 15.2502 210.659 15.3675 211.165 15.6022C211.677 15.8369 212.12 16.1969 212.493 16.6822C212.867 17.1622 213.16 17.7702 213.373 18.5062C213.592 19.2422 213.701 20.1115 213.701 21.1142ZM212.221 21.1142C212.221 20.2395 212.147 19.5062 211.997 18.9142C211.853 18.3169 211.656 17.8369 211.405 17.4742C211.16 17.1115 210.875 16.8529 210.549 16.6982C210.224 16.5382 209.885 16.4582 209.533 16.4582C209.181 16.4582 208.843 16.5382 208.517 16.6982C208.192 16.8529 207.907 17.1115 207.661 17.4742C207.416 17.8369 207.219 18.3169 207.069 18.9142C206.925 19.5062 206.853 20.2395 206.853 21.1142C206.853 21.9889 206.925 22.7222 207.069 23.3142C207.219 23.9062 207.416 24.3835 207.661 24.7462C207.907 25.1089 208.192 25.3702 208.517 25.5302C208.843 25.6849 209.181 25.7622 209.533 25.7622C209.885 25.7622 210.224 25.6849 210.549 25.5302C210.875 25.3702 211.16 25.1089 211.405 24.7462C211.656 24.3835 211.853 23.9062 211.997 23.3142C212.147 22.7222 212.221 21.9889 212.221 21.1142Z" fill="#545454"/>
<circle cx="22.3865" cy="22.5114" r="21.5574" fill="#0FE3AF"/>
<path d="M29.685 26.1689C29.5072 25.9796 28.8796 25.4198 27.7258 24.6791C26.5636 23.9319 25.7064 23.4661 25.4606 23.3575C25.4389 23.3478 25.415 23.3443 25.3915 23.3473C25.368 23.3502 25.3457 23.3595 25.3271 23.3741C24.931 23.683 24.2642 24.2503 24.2285 24.281C23.9976 24.4788 23.9976 24.4788 23.8086 24.4172C23.4762 24.3082 22.4437 23.76 21.544 22.8582C20.6443 21.9565 20.0677 20.8984 19.9588 20.5664C19.8965 20.3771 19.8965 20.3771 20.095 20.1462C20.1256 20.1104 20.6933 19.4436 21.0022 19.0479C21.0168 19.0293 21.0261 19.007 21.0291 18.9835C21.032 18.96 21.0285 18.9361 21.0189 18.9144C20.9102 18.6682 20.4444 17.8114 19.6972 16.6492C18.9555 15.4958 18.3964 14.8682 18.207 14.6904C18.1897 14.674 18.1682 14.6626 18.1449 14.6574C18.1216 14.6522 18.0973 14.6533 18.0746 14.6608C17.4127 14.8882 16.7741 15.1784 16.1675 15.5274C15.5819 15.8678 15.0275 16.2593 14.5108 16.6972C14.4928 16.7125 14.4792 16.7325 14.4717 16.7549C14.4641 16.7774 14.4628 16.8014 14.4679 16.8246C14.5391 17.1562 14.8793 18.5409 15.9349 20.4588C17.0121 22.4162 17.7585 23.4191 19.3404 24.9954C20.9222 26.5718 21.9567 27.3632 23.9162 28.4403C25.8341 29.496 27.2195 29.8365 27.5505 29.907C27.5736 29.9121 27.5978 29.9107 27.6202 29.9032C27.6427 29.8956 27.6627 29.8821 27.6782 29.8641C28.116 29.3474 28.5073 28.793 28.8476 28.2074C29.1965 27.6008 29.4868 26.9622 29.7143 26.3004C29.7215 26.2779 29.7227 26.2538 29.7175 26.2307C29.7124 26.2076 29.7011 26.1863 29.685 26.1689V26.1689Z" fill="#0152A8"/>
</svg>
