<svg width="223" height="45" viewBox="0 0 223 45" fill="none" xmlns="http://www.w3.org/2000/svg">
<path d="M58.3216 20.0742C58.2576 20.1915 58.159 20.2502 58.0256 20.2502C57.9456 20.2502 57.855 20.2208 57.7536 20.1622C57.6523 20.1035 57.527 20.0395 57.3776 19.9702C57.2336 19.8955 57.0603 19.8288 56.8576 19.7702C56.655 19.7062 56.415 19.6742 56.1376 19.6742C55.8976 19.6742 55.6816 19.7062 55.4896 19.7702C55.2976 19.8288 55.1323 19.9115 54.9936 20.0182C54.8603 20.1248 54.7563 20.2502 54.6816 20.3942C54.6123 20.5328 54.5776 20.6848 54.5776 20.8502C54.5776 21.0582 54.6363 21.2315 54.7536 21.3702C54.8763 21.5088 55.0363 21.6288 55.2336 21.7302C55.431 21.8315 55.655 21.9222 55.9056 22.0022C56.1563 22.0768 56.4123 22.1595 56.6736 22.2502C56.9403 22.3355 57.199 22.4315 57.4496 22.5382C57.7003 22.6448 57.9243 22.7782 58.1216 22.9382C58.319 23.0982 58.4763 23.2955 58.5936 23.5302C58.7163 23.7595 58.7776 24.0368 58.7776 24.3622C58.7776 24.7355 58.711 25.0822 58.5776 25.4022C58.4443 25.7168 58.247 25.9915 57.9856 26.2262C57.7243 26.4555 57.4043 26.6368 57.0256 26.7702C56.647 26.9035 56.2096 26.9702 55.7136 26.9702C55.1483 26.9702 54.6363 26.8795 54.1776 26.6982C53.719 26.5115 53.3296 26.2742 53.0096 25.9862L53.3456 25.4422C53.3883 25.3728 53.439 25.3195 53.4976 25.2822C53.5563 25.2448 53.631 25.2262 53.7216 25.2262C53.8176 25.2262 53.919 25.2635 54.0256 25.3382C54.1323 25.4128 54.2603 25.4955 54.4096 25.5862C54.5643 25.6768 54.751 25.7595 54.9696 25.8342C55.1883 25.9088 55.4603 25.9462 55.7856 25.9462C56.063 25.9462 56.3056 25.9115 56.5136 25.8422C56.7216 25.7675 56.895 25.6688 57.0336 25.5462C57.1723 25.4235 57.2736 25.2822 57.3376 25.1222C57.407 24.9622 57.4416 24.7915 57.4416 24.6102C57.4416 24.3862 57.3803 24.2022 57.2576 24.0582C57.1403 23.9088 56.983 23.7835 56.7856 23.6822C56.5883 23.5755 56.3616 23.4848 56.1056 23.4102C55.855 23.3302 55.5963 23.2475 55.3296 23.1622C55.0683 23.0768 54.8096 22.9808 54.5536 22.8742C54.303 22.7622 54.079 22.6235 53.8816 22.4582C53.6843 22.2928 53.5243 22.0902 53.4016 21.8502C53.2843 21.6048 53.2256 21.3088 53.2256 20.9622C53.2256 20.6528 53.2896 20.3568 53.4176 20.0742C53.5456 19.7862 53.7323 19.5355 53.9776 19.3222C54.223 19.1035 54.5243 18.9302 54.8816 18.8022C55.239 18.6742 55.647 18.6102 56.1056 18.6102C56.639 18.6102 57.1163 18.6955 57.5376 18.8662C57.9643 19.0315 58.3323 19.2608 58.6416 19.5542L58.3216 20.0742ZM67.1875 18.7382L67.1875 26.8422L66.3395 26.8422C66.1368 26.8422 66.0088 26.7435 65.9555 26.5462L65.8435 25.6742C65.4915 26.0635 65.0968 26.3782 64.6595 26.6182C64.2222 26.8528 63.7208 26.9702 63.1555 26.9702C62.7128 26.9702 62.3208 26.8982 61.9795 26.7542C61.6435 26.6048 61.3608 26.3968 61.1315 26.1302C60.9022 25.8635 60.7288 25.5408 60.6115 25.1622C60.4995 24.7835 60.4435 24.3648 60.4435 23.9062L60.4435 18.7382L61.8675 18.7382L61.8675 23.9062C61.8675 24.5195 62.0062 24.9942 62.2835 25.3302C62.5662 25.6662 62.9955 25.8342 63.5715 25.8342C63.9928 25.8342 64.3848 25.7355 64.7475 25.5382C65.1155 25.3355 65.4542 25.0582 65.7635 24.7062L65.7635 18.7382L67.1875 18.7382ZM70.8774 24.8902C71.1387 25.2422 71.424 25.4902 71.7334 25.6342C72.0427 25.7782 72.3894 25.8502 72.7734 25.8502C73.5307 25.8502 74.112 25.5808 74.5174 25.0422C74.9227 24.5035 75.1254 23.7355 75.1254 22.7382C75.1254 22.2102 75.0774 21.7568 74.9814 21.3782C74.8907 20.9995 74.7574 20.6902 74.5814 20.4502C74.4054 20.2048 74.1894 20.0262 73.9334 19.9142C73.6774 19.8022 73.3867 19.7462 73.0614 19.7462C72.5974 19.7462 72.1894 19.8528 71.8374 20.0662C71.4907 20.2795 71.1707 20.5808 70.8774 20.9702L70.8774 24.8902ZM70.8054 19.9942C71.1467 19.5728 71.5414 19.2342 71.9894 18.9782C72.4374 18.7222 72.9494 18.5942 73.5254 18.5942C73.9947 18.5942 74.4187 18.6848 74.7974 18.8662C75.176 19.0422 75.4987 19.3062 75.7654 19.6582C76.032 20.0048 76.2374 20.4368 76.3814 20.9542C76.5254 21.4715 76.5974 22.0662 76.5974 22.7382C76.5974 23.3355 76.5174 23.8928 76.3574 24.4102C76.1974 24.9222 75.9654 25.3675 75.6614 25.7462C75.3627 26.1195 74.9947 26.4155 74.5574 26.6342C74.1254 26.8475 73.6374 26.9542 73.0934 26.9542C72.5974 26.9542 72.1707 26.8715 71.8134 26.7062C71.4614 26.5355 71.1494 26.3008 70.8774 26.0022L70.8774 29.5862L69.4454 29.5862L69.4454 18.7382L70.3014 18.7382C70.504 18.7382 70.6294 18.8368 70.6774 19.0342L70.8054 19.9942ZM79.8461 24.8902C80.1075 25.2422 80.3928 25.4902 80.7021 25.6342C81.0115 25.7782 81.3581 25.8502 81.7421 25.8502C82.4995 25.8502 83.0808 25.5808 83.4861 25.0422C83.8915 24.5035 84.0941 23.7355 84.0941 22.7382C84.0941 22.2102 84.0461 21.7568 83.9501 21.3782C83.8595 20.9995 83.7261 20.6902 83.5501 20.4502C83.3741 20.2048 83.1581 20.0262 82.9021 19.9142C82.6461 19.8022 82.3555 19.7462 82.0301 19.7462C81.5661 19.7462 81.1581 19.8528 80.8061 20.0662C80.4595 20.2795 80.1395 20.5808 79.8461 20.9702L79.8461 24.8902ZM79.7741 19.9942C80.1155 19.5728 80.5101 19.2342 80.9581 18.9782C81.4061 18.7222 81.9181 18.5942 82.4941 18.5942C82.9635 18.5942 83.3875 18.6848 83.7661 18.8662C84.1448 19.0422 84.4675 19.3062 84.7341 19.6582C85.0008 20.0048 85.2061 20.4368 85.3501 20.9542C85.4941 21.4715 85.5661 22.0662 85.5661 22.7382C85.5661 23.3355 85.4861 23.8928 85.3261 24.4102C85.1661 24.9222 84.9341 25.3675 84.6301 25.7462C84.3315 26.1195 83.9635 26.4155 83.5261 26.6342C83.0941 26.8475 82.6061 26.9542 82.0621 26.9542C81.5661 26.9542 81.1395 26.8715 80.7821 26.7062C80.4301 26.5355 80.1181 26.3008 79.8461 26.0022L79.8461 29.5862L78.4141 29.5862L78.4141 18.7382L79.2701 18.7382C79.4728 18.7382 79.5981 18.8368 79.6461 19.0342L79.7741 19.9942ZM90.7989 18.6102C91.3909 18.6102 91.9242 18.7088 92.3989 18.9062C92.8735 19.1035 93.2789 19.3835 93.6149 19.7462C93.9509 20.1088 94.2069 20.5488 94.3829 21.0662C94.5642 21.5782 94.6549 22.1515 94.6549 22.7862C94.6549 23.4262 94.5642 24.0022 94.3829 24.5142C94.2069 25.0262 93.9509 25.4635 93.6149 25.8262C93.2789 26.1888 92.8735 26.4688 92.3989 26.6662C91.9242 26.8582 91.3909 26.9542 90.7989 26.9542C90.2015 26.9542 89.6629 26.8582 89.1829 26.6662C88.7082 26.4688 88.3029 26.1888 87.9669 25.8262C87.6309 25.4635 87.3722 25.0262 87.1909 24.5142C87.0149 24.0022 86.9269 23.4262 86.9269 22.7862C86.9269 22.1515 87.0149 21.5782 87.1909 21.0662C87.3722 20.5488 87.6309 20.1088 87.9669 19.7462C88.3029 19.3835 88.7082 19.1035 89.1829 18.9062C89.6629 18.7088 90.2015 18.6102 90.7989 18.6102ZM90.7989 25.8422C91.5989 25.8422 92.1962 25.5755 92.5909 25.0422C92.9855 24.5035 93.1829 23.7542 93.1829 22.7942C93.1829 21.8288 92.9855 21.0768 92.5909 20.5382C92.1962 19.9995 91.5989 19.7302 90.7989 19.7302C90.3935 19.7302 90.0389 19.7995 89.7349 19.9382C89.4362 20.0768 89.1855 20.2768 88.9829 20.5382C88.7855 20.7995 88.6362 21.1222 88.5349 21.5062C88.4389 21.8848 88.3909 22.3142 88.3909 22.7942C88.3909 23.7542 88.5882 24.5035 88.9829 25.0422C89.3829 25.5755 89.9882 25.8422 90.7989 25.8422ZM97.813 20.3622C98.069 19.8075 98.3837 19.3755 98.757 19.0662C99.1303 18.7515 99.5863 18.5942 100.125 18.5942C100.296 18.5942 100.458 18.6128 100.613 18.6502C100.773 18.6875 100.914 18.7462 101.037 18.8262L100.933 19.8902C100.901 20.0235 100.821 20.0902 100.693 20.0902C100.618 20.0902 100.509 20.0742 100.365 20.0422C100.221 20.0102 100.058 19.9942 99.877 19.9942C99.621 19.9942 99.3917 20.0315 99.189 20.1062C98.9917 20.1808 98.813 20.2928 98.653 20.4422C98.4983 20.5862 98.357 20.7675 98.229 20.9862C98.1063 21.1995 97.9943 21.4448 97.893 21.7222L97.893 26.8422L96.461 26.8422L96.461 18.7382L97.277 18.7382C97.4317 18.7382 97.5383 18.7675 97.597 18.8262C97.6557 18.8848 97.6957 18.9862 97.717 19.1302L97.813 20.3622ZM104.777 26.9702C104.137 26.9702 103.644 26.7915 103.297 26.4342C102.956 26.0768 102.785 25.5622 102.785 24.8902L102.785 19.9302L101.809 19.9302C101.724 19.9302 101.652 19.9062 101.593 19.8582C101.534 19.8048 101.505 19.7248 101.505 19.6182L101.505 19.0502L102.833 18.8822L103.161 16.3782C103.177 16.2982 103.212 16.2342 103.265 16.1862C103.324 16.1328 103.398 16.1062 103.489 16.1062L104.209 16.1062L104.209 18.8982L106.553 18.8982L106.553 19.9302L104.209 19.9302L104.209 24.7942C104.209 25.1355 104.292 25.3888 104.457 25.5542C104.622 25.7195 104.836 25.8022 105.097 25.8022C105.246 25.8022 105.374 25.7835 105.481 25.7462C105.593 25.7035 105.689 25.6582 105.769 25.6102C105.849 25.5622 105.916 25.5195 105.969 25.4822C106.028 25.4395 106.078 25.4182 106.121 25.4182C106.196 25.4182 106.262 25.4635 106.321 25.5542L106.737 26.2342C106.492 26.4635 106.196 26.6448 105.849 26.7782C105.502 26.9062 105.145 26.9702 104.777 26.9702ZM115.336 20.2662C115.128 20.2182 114.898 20.1942 114.648 20.1942C114.248 20.1942 113.88 20.2795 113.544 20.4502C113.213 20.6155 112.928 20.8342 112.688 21.1062C112.448 21.3782 112.258 21.6902 112.12 22.0422C111.986 22.3942 111.92 22.7542 111.92 23.1222C111.92 23.5062 112.008 23.8155 112.184 24.0502C112.36 24.2795 112.621 24.3942 112.968 24.3942C113.133 24.3942 113.298 24.3675 113.464 24.3142C113.634 24.2608 113.797 24.1675 113.952 24.0342C114.112 23.9008 114.258 23.7195 114.392 23.4902C114.525 23.2608 114.637 22.9728 114.728 22.6262L115.336 20.2662ZM115.832 22.4982C115.725 22.9035 115.674 23.2342 115.68 23.4902C115.685 23.7408 115.725 23.9382 115.8 24.0822C115.88 24.2262 115.989 24.3248 116.128 24.3782C116.266 24.4262 116.418 24.4502 116.584 24.4502C116.845 24.4502 117.093 24.3755 117.328 24.2262C117.562 24.0768 117.768 23.8662 117.944 23.5942C118.125 23.3222 118.266 22.9968 118.368 22.6182C118.474 22.2342 118.528 21.8102 118.528 21.3462C118.528 20.6102 118.41 19.9648 118.176 19.4102C117.941 18.8555 117.616 18.3942 117.2 18.0262C116.789 17.6528 116.301 17.3755 115.736 17.1942C115.176 17.0075 114.57 16.9142 113.92 16.9142C113.205 16.9142 112.536 17.0502 111.912 17.3222C111.288 17.5942 110.744 17.9702 110.28 18.4502C109.816 18.9302 109.448 19.4982 109.176 20.1542C108.909 20.8102 108.776 21.5248 108.776 22.2982C108.776 23.2048 108.917 24.0022 109.2 24.6902C109.488 25.3728 109.877 25.9462 110.368 26.4102C110.864 26.8742 111.445 27.2235 112.112 27.4582C112.778 27.6928 113.493 27.8102 114.256 27.8102C115.066 27.8102 115.781 27.7222 116.4 27.5462C117.024 27.3702 117.562 27.1462 118.016 26.8742C118.122 26.8102 118.216 26.7915 118.296 26.8182C118.376 26.8395 118.434 26.8982 118.472 26.9942L118.68 27.5222C118.104 27.9062 117.45 28.2075 116.72 28.4262C115.994 28.6448 115.173 28.7542 114.256 28.7542C113.328 28.7542 112.466 28.6075 111.672 28.3142C110.877 28.0208 110.186 27.5968 109.6 27.0422C109.018 26.4928 108.56 25.8182 108.224 25.0182C107.893 24.2182 107.728 23.3115 107.728 22.2982C107.728 21.7168 107.8 21.1568 107.944 20.6182C108.093 20.0795 108.301 19.5782 108.568 19.1142C108.834 18.6448 109.154 18.2182 109.528 17.8342C109.901 17.4448 110.317 17.1142 110.776 16.8422C111.234 16.5648 111.728 16.3515 112.256 16.2022C112.789 16.0475 113.344 15.9702 113.92 15.9702C114.41 15.9702 114.89 16.0235 115.36 16.1302C115.829 16.2368 116.272 16.3942 116.688 16.6022C117.109 16.8102 117.493 17.0688 117.84 17.3782C118.192 17.6822 118.496 18.0342 118.752 18.4342C119.008 18.8288 119.205 19.2715 119.344 19.7622C119.488 20.2475 119.56 20.7755 119.56 21.3462C119.56 21.9222 119.477 22.4555 119.312 22.9462C119.152 23.4315 118.928 23.8528 118.64 24.2102C118.357 24.5675 118.021 24.8475 117.632 25.0502C117.242 25.2528 116.824 25.3542 116.376 25.3542C115.97 25.3542 115.634 25.2555 115.368 25.0582C115.106 24.8555 114.938 24.5488 114.864 24.1382C114.56 24.5648 114.226 24.8715 113.864 25.0582C113.501 25.2448 113.109 25.3382 112.688 25.3382C112.373 25.3382 112.096 25.2848 111.856 25.1782C111.621 25.0662 111.426 24.9142 111.272 24.7222C111.117 24.5248 111 24.2928 110.92 24.0262C110.845 23.7595 110.808 23.4715 110.808 23.1622C110.808 22.7088 110.893 22.2528 111.064 21.7942C111.24 21.3302 111.498 20.9142 111.84 20.5462C112.181 20.1728 112.605 19.8688 113.112 19.6342C113.618 19.3995 114.205 19.2822 114.872 19.2822C115.229 19.2822 115.544 19.3115 115.816 19.3702C116.088 19.4235 116.344 19.5035 116.584 19.6102L115.832 22.4982ZM126.694 20.6662C126.427 20.3088 126.139 20.0608 125.83 19.9222C125.521 19.7782 125.174 19.7062 124.79 19.7062C124.038 19.7062 123.459 19.9755 123.054 20.5142C122.649 21.0528 122.446 21.8208 122.446 22.8182C122.446 23.3462 122.491 23.7995 122.582 24.1782C122.673 24.5515 122.806 24.8608 122.982 25.1062C123.158 25.3462 123.374 25.5222 123.63 25.6342C123.886 25.7462 124.177 25.8022 124.502 25.8022C124.971 25.8022 125.379 25.6955 125.726 25.4822C126.078 25.2688 126.401 24.9675 126.694 24.5782L126.694 20.6662ZM128.118 15.0582L128.118 26.8422L127.27 26.8422C127.067 26.8422 126.939 26.7435 126.886 26.5462L126.758 25.5622C126.411 25.9782 126.017 26.3142 125.574 26.5702C125.131 26.8262 124.619 26.9542 124.038 26.9542C123.574 26.9542 123.153 26.8662 122.774 26.6902C122.395 26.5088 122.073 26.2448 121.806 25.8982C121.539 25.5515 121.334 25.1195 121.19 24.6022C121.046 24.0848 120.974 23.4902 120.974 22.8182C120.974 22.2208 121.054 21.6662 121.214 21.1542C121.374 20.6368 121.603 20.1888 121.902 19.8102C122.201 19.4315 122.566 19.1355 122.998 18.9222C123.435 18.7035 123.926 18.5942 124.47 18.5942C124.966 18.5942 125.39 18.6795 125.742 18.8502C126.099 19.0155 126.417 19.2475 126.694 19.5462L126.694 15.0582L128.118 15.0582ZM133.783 18.6102C134.375 18.6102 134.909 18.7088 135.383 18.9062C135.858 19.1035 136.263 19.3835 136.599 19.7462C136.935 20.1088 137.191 20.5488 137.367 21.0662C137.549 21.5782 137.639 22.1515 137.639 22.7862C137.639 23.4262 137.549 24.0022 137.367 24.5142C137.191 25.0262 136.935 25.4635 136.599 25.8262C136.263 26.1888 135.858 26.4688 135.383 26.6662C134.909 26.8582 134.375 26.9542 133.783 26.9542C133.186 26.9542 132.647 26.8582 132.167 26.6662C131.693 26.4688 131.287 26.1888 130.951 25.8262C130.615 25.4635 130.357 25.0262 130.175 24.5142C129.999 24.0022 129.911 23.4262 129.911 22.7862C129.911 22.1515 129.999 21.5782 130.175 21.0662C130.357 20.5488 130.615 20.1088 130.951 19.7462C131.287 19.3835 131.693 19.1035 132.167 18.9062C132.647 18.7088 133.186 18.6102 133.783 18.6102ZM133.783 25.8422C134.583 25.8422 135.181 25.5755 135.575 25.0422C135.97 24.5035 136.167 23.7542 136.167 22.7942C136.167 21.8288 135.97 21.0768 135.575 20.5382C135.181 19.9995 134.583 19.7302 133.783 19.7302C133.378 19.7302 133.023 19.7995 132.719 19.9382C132.421 20.0768 132.17 20.2768 131.967 20.5382C131.77 20.7995 131.621 21.1222 131.519 21.5062C131.423 21.8848 131.375 22.3142 131.375 22.7942C131.375 23.7542 131.573 24.5035 131.967 25.0422C132.367 25.5755 132.973 25.8422 133.783 25.8422ZM145.085 20.1782C145.043 20.2368 145 20.2822 144.957 20.3142C144.915 20.3462 144.856 20.3622 144.781 20.3622C144.701 20.3622 144.613 20.3302 144.517 20.2662C144.421 20.1968 144.301 20.1222 144.157 20.0422C144.019 19.9622 143.845 19.8902 143.637 19.8262C143.435 19.7568 143.184 19.7222 142.885 19.7222C142.485 19.7222 142.133 19.7942 141.829 19.9382C141.525 20.0768 141.269 20.2795 141.061 20.5462C140.859 20.8128 140.704 21.1355 140.597 21.5142C140.496 21.8928 140.445 22.3168 140.445 22.7862C140.445 23.2768 140.501 23.7142 140.613 24.0982C140.725 24.4768 140.883 24.7968 141.085 25.0582C141.293 25.3142 141.541 25.5115 141.829 25.6502C142.123 25.7835 142.451 25.8502 142.813 25.8502C143.16 25.8502 143.445 25.8102 143.669 25.7302C143.893 25.6448 144.077 25.5515 144.221 25.4502C144.371 25.3488 144.493 25.2582 144.589 25.1782C144.691 25.0928 144.789 25.0502 144.885 25.0502C145.003 25.0502 145.093 25.0955 145.157 25.1862L145.557 25.7062C145.381 25.9248 145.181 26.1115 144.957 26.2662C144.733 26.4208 144.491 26.5515 144.229 26.6582C143.973 26.7595 143.704 26.8342 143.421 26.8822C143.139 26.9302 142.851 26.9542 142.557 26.9542C142.051 26.9542 141.579 26.8608 141.141 26.6742C140.709 26.4875 140.333 26.2182 140.013 25.8662C139.693 25.5088 139.443 25.0715 139.261 24.5542C139.08 24.0368 138.989 23.4475 138.989 22.7862C138.989 22.1835 139.072 21.6262 139.237 21.1142C139.408 20.6022 139.653 20.1622 139.973 19.7942C140.299 19.4208 140.696 19.1302 141.165 18.9222C141.64 18.7142 142.184 18.6102 142.797 18.6102C143.368 18.6102 143.869 18.7035 144.301 18.8902C144.739 19.0715 145.125 19.3302 145.461 19.6662L145.085 20.1782ZM149.574 26.9702C148.934 26.9702 148.441 26.7915 148.094 26.4342C147.753 26.0768 147.582 25.5622 147.582 24.8902L147.582 19.9302L146.606 19.9302C146.521 19.9302 146.449 19.9062 146.39 19.8582C146.331 19.8048 146.302 19.7248 146.302 19.6182L146.302 19.0502L147.63 18.8822L147.958 16.3782C147.974 16.2982 148.009 16.2342 148.062 16.1862C148.121 16.1328 148.195 16.1062 148.286 16.1062L149.006 16.1062L149.006 18.8982L151.35 18.8982L151.35 19.9302L149.006 19.9302L149.006 24.7942C149.006 25.1355 149.089 25.3888 149.254 25.5542C149.419 25.7195 149.633 25.8022 149.894 25.8022C150.043 25.8022 150.171 25.7835 150.278 25.7462C150.39 25.7035 150.486 25.6582 150.566 25.6102C150.646 25.5622 150.713 25.5195 150.766 25.4822C150.825 25.4395 150.875 25.4182 150.918 25.4182C150.993 25.4182 151.059 25.4635 151.118 25.5542L151.534 26.2342C151.289 26.4635 150.993 26.6448 150.646 26.7782C150.299 26.9062 149.942 26.9702 149.574 26.9702ZM156.19 18.6102C156.782 18.6102 157.315 18.7088 157.79 18.9062C158.264 19.1035 158.67 19.3835 159.006 19.7462C159.342 20.1088 159.598 20.5488 159.774 21.0662C159.955 21.5782 160.046 22.1515 160.046 22.7862C160.046 23.4262 159.955 24.0022 159.774 24.5142C159.598 25.0262 159.342 25.4635 159.006 25.8262C158.67 26.1888 158.264 26.4688 157.79 26.6662C157.315 26.8582 156.782 26.9542 156.19 26.9542C155.592 26.9542 155.054 26.8582 154.574 26.6662C154.099 26.4688 153.694 26.1888 153.358 25.8262C153.022 25.4635 152.763 25.0262 152.582 24.5142C152.406 24.0022 152.318 23.4262 152.318 22.7862C152.318 22.1515 152.406 21.5782 152.582 21.0662C152.763 20.5488 153.022 20.1088 153.358 19.7462C153.694 19.3835 154.099 19.1035 154.574 18.9062C155.054 18.7088 155.592 18.6102 156.19 18.6102ZM156.19 25.8422C156.99 25.8422 157.587 25.5755 157.982 25.0422C158.376 24.5035 158.574 23.7542 158.574 22.7942C158.574 21.8288 158.376 21.0768 157.982 20.5382C157.587 19.9995 156.99 19.7302 156.19 19.7302C155.784 19.7302 155.43 19.7995 155.126 19.9382C154.827 20.0768 154.576 20.2768 154.374 20.5382C154.176 20.7995 154.027 21.1222 153.926 21.5062C153.83 21.8848 153.782 22.3142 153.782 22.7942C153.782 23.7542 153.979 24.5035 154.374 25.0422C154.774 25.5755 155.379 25.8422 156.19 25.8422ZM163.204 20.3622C163.46 19.8075 163.774 19.3755 164.148 19.0662C164.521 18.7515 164.977 18.5942 165.516 18.5942C165.686 18.5942 165.849 18.6128 166.004 18.6502C166.164 18.6875 166.305 18.7462 166.428 18.8262L166.324 19.8902C166.292 20.0235 166.212 20.0902 166.084 20.0902C166.009 20.0902 165.9 20.0742 165.756 20.0422C165.612 20.0102 165.449 19.9942 165.268 19.9942C165.012 19.9942 164.782 20.0315 164.58 20.1062C164.382 20.1808 164.204 20.2928 164.044 20.4422C163.889 20.5862 163.748 20.7675 163.62 20.9862C163.497 21.1995 163.385 21.4448 163.284 21.7222L163.284 26.8422L161.852 26.8422L161.852 18.7382L162.668 18.7382C162.822 18.7382 162.929 18.7675 162.988 18.8262C163.046 18.8848 163.086 18.9862 163.108 19.1302L163.204 20.3622ZM171.947 23.1942C171.291 23.2155 170.731 23.2689 170.267 23.3542C169.808 23.4342 169.432 23.5408 169.139 23.6742C168.851 23.8075 168.64 23.9648 168.507 24.1462C168.379 24.3275 168.315 24.5302 168.315 24.7542C168.315 24.9675 168.349 25.1515 168.419 25.3062C168.488 25.4609 168.581 25.5889 168.699 25.6902C168.821 25.7862 168.963 25.8582 169.123 25.9062C169.288 25.9489 169.464 25.9702 169.651 25.9702C169.901 25.9702 170.131 25.9462 170.339 25.8982C170.547 25.8449 170.741 25.7702 170.923 25.6742C171.109 25.5782 171.285 25.4635 171.451 25.3302C171.621 25.1969 171.787 25.0449 171.947 24.8742L171.947 23.1942ZM167.347 19.8822C167.795 19.4502 168.277 19.1275 168.795 18.9142C169.312 18.7008 169.885 18.5942 170.515 18.5942C170.968 18.5942 171.371 18.6689 171.723 18.8182C172.075 18.9675 172.371 19.1755 172.611 19.4422C172.851 19.7089 173.032 20.0315 173.155 20.4102C173.277 20.7889 173.339 21.2049 173.339 21.6582L173.339 26.8422L172.707 26.8422C172.568 26.8422 172.461 26.8209 172.387 26.7782C172.312 26.7302 172.253 26.6395 172.211 26.5062L172.051 25.7382C171.837 25.9355 171.629 26.1115 171.427 26.2662C171.224 26.4155 171.011 26.5435 170.787 26.6502C170.563 26.7515 170.323 26.8289 170.067 26.8822C169.816 26.9409 169.536 26.9702 169.227 26.9702C168.912 26.9702 168.616 26.9275 168.339 26.8422C168.061 26.7515 167.819 26.6182 167.611 26.4422C167.408 26.2662 167.245 26.0448 167.123 25.7782C167.005 25.5062 166.947 25.1862 166.947 24.8182C166.947 24.4982 167.035 24.1915 167.211 23.8982C167.387 23.5995 167.672 23.3355 168.067 23.1062C168.461 22.8768 168.976 22.6902 169.611 22.5462C170.245 22.3969 171.024 22.3115 171.947 22.2902L171.947 21.6582C171.947 21.0289 171.811 20.5542 171.539 20.2342C171.267 19.9089 170.869 19.7462 170.347 19.7462C169.995 19.7462 169.699 19.7915 169.459 19.8822C169.224 19.9675 169.019 20.0662 168.843 20.1782C168.672 20.2848 168.523 20.3835 168.395 20.4742C168.272 20.5595 168.149 20.6022 168.027 20.6022C167.931 20.6022 167.848 20.5782 167.779 20.5302C167.709 20.4768 167.651 20.4128 167.603 20.3382L167.347 19.8822ZM177.887 26.9702C177.247 26.9702 176.753 26.7915 176.407 26.4342C176.065 26.0769 175.895 25.5622 175.895 24.8902L175.895 19.9302L174.919 19.9302C174.833 19.9302 174.761 19.9062 174.703 19.8582C174.644 19.8049 174.615 19.7249 174.615 19.6182L174.615 19.0502L175.943 18.8822L176.271 16.3782C176.287 16.2982 176.321 16.2342 176.375 16.1862C176.433 16.1329 176.508 16.1062 176.599 16.1062L177.319 16.1062L177.319 18.8982L179.663 18.8982L179.663 19.9302L177.319 19.9302L177.319 24.7942C177.319 25.1355 177.401 25.3889 177.567 25.5542C177.732 25.7195 177.945 25.8022 178.207 25.8022C178.356 25.8022 178.484 25.7835 178.591 25.7462C178.703 25.7035 178.799 25.6582 178.879 25.6102C178.959 25.5622 179.025 25.5195 179.079 25.4822C179.137 25.4395 179.188 25.4182 179.231 25.4182C179.305 25.4182 179.372 25.4635 179.431 25.5542L179.847 26.2342C179.601 26.4635 179.305 26.6449 178.959 26.7782C178.612 26.9062 178.255 26.9702 177.887 26.9702ZM186.51 21.9062C186.51 21.5755 186.462 21.2742 186.366 21.0022C186.275 20.7249 186.139 20.4875 185.958 20.2902C185.782 20.0875 185.566 19.9329 185.31 19.8262C185.054 19.7142 184.763 19.6582 184.438 19.6582C183.755 19.6582 183.214 19.8582 182.814 20.2582C182.419 20.6529 182.174 21.2022 182.078 21.9062L186.51 21.9062ZM187.662 25.7062C187.486 25.9195 187.275 26.1062 187.03 26.2662C186.785 26.4209 186.521 26.5489 186.238 26.6502C185.961 26.7515 185.673 26.8262 185.374 26.8742C185.075 26.9275 184.779 26.9542 184.486 26.9542C183.926 26.9542 183.409 26.8609 182.934 26.6742C182.465 26.4822 182.057 26.2049 181.71 25.8422C181.369 25.4742 181.102 25.0209 180.91 24.4822C180.718 23.9435 180.622 23.3249 180.622 22.6262C180.622 22.0609 180.707 21.5329 180.878 21.0422C181.054 20.5515 181.305 20.1275 181.63 19.7702C181.955 19.4075 182.353 19.1249 182.822 18.9222C183.291 18.7142 183.819 18.6102 184.406 18.6102C184.891 18.6102 185.339 18.6929 185.75 18.8582C186.166 19.0182 186.523 19.2529 186.822 19.5622C187.126 19.8662 187.363 20.2449 187.534 20.6982C187.705 21.1462 187.79 21.6582 187.79 22.2342C187.79 22.4582 187.766 22.6075 187.718 22.6822C187.67 22.7569 187.579 22.7942 187.446 22.7942L182.03 22.7942C182.046 23.3062 182.115 23.7515 182.238 24.1302C182.366 24.5089 182.542 24.8262 182.766 25.0822C182.99 25.3329 183.257 25.5222 183.566 25.6502C183.875 25.7729 184.222 25.8342 184.606 25.8342C184.963 25.8342 185.27 25.7942 185.526 25.7142C185.787 25.6289 186.011 25.5382 186.198 25.4422C186.385 25.3462 186.539 25.2582 186.662 25.1782C186.79 25.0929 186.899 25.0502 186.99 25.0502C187.107 25.0502 187.198 25.0955 187.262 25.1862L187.662 25.7062ZM189.299 25.9622C189.299 25.8235 189.323 25.6929 189.371 25.5702C189.424 25.4475 189.494 25.3409 189.579 25.2502C189.67 25.1595 189.776 25.0875 189.899 25.0342C190.022 24.9809 190.152 24.9542 190.291 24.9542C190.43 24.9542 190.56 24.9809 190.683 25.0342C190.806 25.0875 190.912 25.1595 191.003 25.2502C191.094 25.3409 191.166 25.4475 191.219 25.5702C191.272 25.6929 191.299 25.8235 191.299 25.9622C191.299 26.1062 191.272 26.2395 191.219 26.3622C191.166 26.4795 191.094 26.5835 191.003 26.6742C190.912 26.7649 190.806 26.8342 190.683 26.8822C190.56 26.9355 190.43 26.9622 190.291 26.9622C190.152 26.9622 190.022 26.9355 189.899 26.8822C189.776 26.8342 189.67 26.7649 189.579 26.6742C189.494 26.5835 189.424 26.4795 189.371 26.3622C189.323 26.2395 189.299 26.1062 189.299 25.9622ZM198.96 20.1782C198.918 20.2369 198.875 20.2822 198.832 20.3142C198.79 20.3462 198.731 20.3622 198.656 20.3622C198.576 20.3622 198.488 20.3302 198.392 20.2662C198.296 20.1969 198.176 20.1222 198.032 20.0422C197.894 19.9622 197.72 19.8902 197.512 19.8262C197.31 19.7569 197.059 19.7222 196.76 19.7222C196.36 19.7222 196.008 19.7942 195.704 19.9382C195.4 20.0769 195.144 20.2795 194.936 20.5462C194.734 20.8129 194.579 21.1355 194.472 21.5142C194.371 21.8929 194.32 22.3169 194.32 22.7862C194.32 23.2769 194.376 23.7142 194.488 24.0982C194.6 24.4769 194.758 24.7969 194.96 25.0582C195.168 25.3142 195.416 25.5115 195.704 25.6502C195.998 25.7835 196.326 25.8502 196.688 25.8502C197.035 25.8502 197.32 25.8102 197.544 25.7302C197.768 25.6449 197.952 25.5515 198.096 25.4502C198.246 25.3489 198.368 25.2582 198.464 25.1782C198.566 25.0929 198.664 25.0502 198.76 25.0502C198.878 25.0502 198.968 25.0955 199.032 25.1862L199.432 25.7062C199.256 25.9249 199.056 26.1115 198.832 26.2662C198.608 26.4209 198.366 26.5515 198.104 26.6582C197.848 26.7595 197.579 26.8342 197.296 26.8822C197.014 26.9302 196.726 26.9542 196.432 26.9542C195.926 26.9542 195.454 26.8609 195.016 26.6742C194.584 26.4875 194.208 26.2182 193.888 25.8662C193.568 25.5089 193.318 25.0715 193.136 24.5542C192.955 24.0369 192.864 23.4475 192.864 22.7862C192.864 22.1835 192.947 21.6262 193.112 21.1142C193.283 20.6022 193.528 20.1622 193.848 19.7942C194.174 19.4209 194.571 19.1302 195.04 18.9222C195.515 18.7142 196.059 18.6102 196.672 18.6102C197.243 18.6102 197.744 18.7035 198.176 18.8902C198.614 19.0715 199 19.3302 199.336 19.6662L198.96 20.1782ZM204.236 18.6102C204.828 18.6102 205.362 18.7089 205.836 18.9062C206.311 19.1035 206.716 19.3835 207.052 19.7462C207.388 20.1089 207.644 20.5489 207.82 21.0662C208.002 21.5782 208.092 22.1515 208.092 22.7862C208.092 23.4262 208.002 24.0022 207.82 24.5142C207.644 25.0262 207.388 25.4635 207.052 25.8262C206.716 26.1889 206.311 26.4689 205.836 26.6662C205.362 26.8582 204.828 26.9542 204.236 26.9542C203.639 26.9542 203.1 26.8582 202.62 26.6662C202.146 26.4689 201.74 26.1889 201.404 25.8262C201.068 25.4635 200.81 25.0262 200.628 24.5142C200.452 24.0022 200.364 23.4262 200.364 22.7862C200.364 22.1515 200.452 21.5782 200.628 21.0662C200.81 20.5489 201.068 20.1089 201.404 19.7462C201.74 19.3835 202.146 19.1035 202.62 18.9062C203.1 18.7089 203.639 18.6102 204.236 18.6102ZM204.236 25.8422C205.036 25.8422 205.634 25.5755 206.028 25.0422C206.423 24.5035 206.62 23.7542 206.62 22.7942C206.62 21.8289 206.423 21.0769 206.028 20.5382C205.634 19.9995 205.036 19.7302 204.236 19.7302C203.831 19.7302 203.476 19.7995 203.172 19.9382C202.874 20.0769 202.623 20.2769 202.42 20.5382C202.223 20.7995 202.074 21.1222 201.972 21.5062C201.876 21.8849 201.828 22.3142 201.828 22.7942C201.828 23.7542 202.026 24.5035 202.42 25.0422C202.82 25.5755 203.426 25.8422 204.236 25.8422ZM209.899 26.8422L209.899 18.7382L210.755 18.7382C210.957 18.7382 211.083 18.8369 211.131 19.0342L211.235 19.8662C211.533 19.4982 211.869 19.1969 212.243 18.9622C212.616 18.7275 213.048 18.6102 213.539 18.6102C214.083 18.6102 214.523 18.7622 214.859 19.0662C215.2 19.3702 215.445 19.7809 215.595 20.2982C215.712 20.0049 215.861 19.7515 216.043 19.5382C216.229 19.3249 216.437 19.1489 216.667 19.0102C216.896 18.8715 217.139 18.7702 217.395 18.7062C217.656 18.6422 217.92 18.6102 218.187 18.6102C218.613 18.6102 218.992 18.6795 219.323 18.8182C219.659 18.9515 219.941 19.1489 220.171 19.4102C220.405 19.6715 220.584 19.9942 220.707 20.3782C220.829 20.7569 220.891 21.1915 220.891 21.6822L220.891 26.8422L219.459 26.8422L219.459 21.6822C219.459 21.0475 219.32 20.5675 219.043 20.2422C218.765 19.9115 218.365 19.7462 217.843 19.7462C217.608 19.7462 217.384 19.7889 217.171 19.8742C216.963 19.9542 216.779 20.0742 216.619 20.2342C216.459 20.3942 216.331 20.5969 216.235 20.8422C216.144 21.0822 216.099 21.3622 216.099 21.6822L216.099 26.8422L214.667 26.8422L214.667 21.6822C214.667 21.0315 214.536 20.5462 214.275 20.2262C214.013 19.9062 213.632 19.7462 213.131 19.7462C212.779 19.7462 212.453 19.8422 212.155 20.0342C211.856 20.2209 211.581 20.4769 211.331 20.8022L211.331 26.8422L209.899 26.8422Z" fill="#545454"/>
<circle cx="22.2087" cy="22.5114" r="21.5574" fill="#0FE3AF"/>
<path d="M29.1428 15.8437H15.9749C15.3931 15.8443 14.8352 16.0687 14.4238 16.4677C14.0123 16.8666 13.7809 17.4076 13.7803 17.9718V27.0924C13.7809 27.6566 14.0123 28.1976 14.4238 28.5966C14.8352 28.9955 15.3931 29.2199 15.9749 29.2205H29.1428C29.7246 29.2199 30.2825 28.9955 30.6939 28.5966C31.1054 28.1976 31.3368 27.6566 31.3374 27.0924V17.9718C31.3368 17.4076 31.1054 16.8666 30.6939 16.4677C30.2825 16.0687 29.7246 15.8443 29.1428 15.8437ZM28.587 19.3639L22.9437 23.6201C22.8336 23.7031 22.6982 23.7481 22.5588 23.7481C22.4195 23.7481 22.284 23.7031 22.174 23.6201L16.5306 19.3639C16.4643 19.3153 16.4086 19.2545 16.3668 19.1848C16.3249 19.1152 16.2978 19.0383 16.2869 18.9584C16.276 18.8785 16.2816 18.7973 16.3033 18.7196C16.325 18.6418 16.3625 18.569 16.4135 18.5054C16.4645 18.4418 16.528 18.3887 16.6004 18.3491C16.6727 18.3095 16.7525 18.2842 16.835 18.2748C16.9175 18.2653 17.0012 18.2719 17.081 18.2941C17.1609 18.3162 17.2355 18.3536 17.3003 18.4039L22.5588 22.3698L27.8174 18.4039C27.9488 18.3076 28.1141 18.2654 28.2775 18.2864C28.4408 18.3073 28.5891 18.3898 28.6903 18.5159C28.7914 18.6421 28.8373 18.8017 28.818 18.9604C28.7986 19.1191 28.7157 19.264 28.587 19.3639Z" fill="#0152A8"/>
</svg>
