<svg width="70" height="27" viewBox="0 0 70 27" fill="none" xmlns="http://www.w3.org/2000/svg">
<path d="M17.9458 9.60561L14.6978 9.60561L14.6978 18.4956L13.3468 18.4956L13.3468 9.60561L10.0918 9.6056L10.0918 8.4646L17.9458 8.46461L17.9458 9.60561ZM26.6023 18.4956L25.2443 18.4956L25.2443 8.46461L26.6023 8.46461L26.6023 18.4956ZM45.4151 8.46461L45.4151 18.4956L44.2251 18.4956L44.2251 11.1246C44.2251 11.0266 44.2275 10.9216 44.2321 10.8096C44.2415 10.6976 44.2508 10.5833 44.2601 10.4666L40.8161 16.7386C40.7088 16.9486 40.5455 17.0536 40.3261 17.0536L40.1301 17.0536C39.9108 17.0536 39.7475 16.9486 39.6401 16.7386L36.1261 10.4386C36.1541 10.6859 36.1681 10.9146 36.1681 11.1246L36.1681 18.4956L34.9781 18.4956L34.9781 8.46461L35.9791 8.46461C36.1005 8.46461 36.1938 8.47628 36.2591 8.49961C36.3245 8.52294 36.3875 8.58828 36.4481 8.69561L39.9131 14.8696C39.9691 14.9816 40.0228 15.0983 40.0741 15.2196C40.1301 15.3409 40.1815 15.4646 40.2281 15.5906C40.2748 15.4646 40.3238 15.3409 40.3751 15.2196C40.4265 15.0936 40.4825 14.9746 40.5431 14.8626L43.9451 8.69561C44.0011 8.58828 44.0618 8.52294 44.1271 8.49961C44.1971 8.47628 44.2928 8.46461 44.4141 8.46461L45.4151 8.46461ZM59.9781 17.3896L59.9711 18.4956L53.7901 18.4956L53.7901 8.46461L59.9711 8.46461L59.9711 9.57061L55.1481 9.57061L55.1481 12.9026L59.0541 12.9026L59.0541 13.9666L55.1481 13.9666L55.1481 17.3896L59.9781 17.3896Z" fill="#1C1C1C"/>
<rect x="1.13184" y="0.745605" width="68.5" height="25.5" stroke="#CECECE" stroke-width="0.5"/>
</svg>
