<svg width="329" height="221" viewBox="0 0 329 221" fill="none" xmlns="http://www.w3.org/2000/svg">
<rect width="328" height="220" transform="translate(0.381836 0.495605)" fill="white" fill-opacity="0.86"/>
<path d="M146.946 55.6056L143.698 55.6056L143.698 64.4956L142.347 64.4956L142.347 55.6056L139.092 55.6056L139.092 54.4646L146.946 54.4646L146.946 55.6056ZM155.602 64.4956L154.244 64.4956L154.244 54.4646L155.602 54.4646L155.602 64.4956ZM174.415 54.4646L174.415 64.4956L173.225 64.4956L173.225 57.1246C173.225 57.0266 173.227 56.9216 173.232 56.8096C173.241 56.6976 173.251 56.5833 173.26 56.4666L169.816 62.7386C169.709 62.9486 169.545 63.0536 169.326 63.0536L169.13 63.0536C168.911 63.0536 168.747 62.9486 168.64 62.7386L165.126 56.4386C165.154 56.6859 165.168 56.9146 165.168 57.1246L165.168 64.4956L163.978 64.4956L163.978 54.4646L164.979 54.4646C165.1 54.4646 165.194 54.4763 165.259 54.4996C165.324 54.5229 165.387 54.5883 165.448 54.6956L168.913 60.8696C168.969 60.9816 169.023 61.0983 169.074 61.2196C169.13 61.3409 169.181 61.4646 169.228 61.5906C169.275 61.4646 169.324 61.3409 169.375 61.2196C169.426 61.0936 169.482 60.9746 169.543 60.8626L172.945 54.6956C173.001 54.5883 173.062 54.5229 173.127 54.4996C173.197 54.4763 173.293 54.4646 173.414 54.4646L174.415 54.4646ZM188.978 63.3896L188.971 64.4956L182.79 64.4956L182.79 54.4646L188.971 54.4646L188.971 55.5706L184.148 55.5706L184.148 58.9026L188.054 58.9026L188.054 59.9666L184.148 59.9666L184.148 63.3896L188.978 63.3896Z" fill="#1C1C1C"/>
<rect x="130.132" y="46.7456" width="68.5" height="25.5" stroke="#CECECE" stroke-width="0.5"/>
<path d="M55.1518 115.496L48.1918 94.4956L52.2418 94.4956L58.4518 113.486L56.4418 113.486L62.8918 94.4956L66.4918 94.4956L72.7618 113.486L70.8118 113.486L77.1718 94.4956L80.8918 94.4956L73.9318 115.496L69.7918 115.496L64.0618 98.3656L65.1418 98.3656L59.3218 115.496L55.1518 115.496ZM89.7078 115.706C88.0678 115.706 86.6078 115.356 85.3278 114.656C84.0478 113.936 83.0378 112.956 82.2978 111.716C81.5578 110.476 81.1878 109.066 81.1878 107.486C81.1878 105.886 81.5578 104.476 82.2978 103.256C83.0378 102.016 84.0478 101.046 85.3278 100.346C86.6078 99.6456 88.0678 99.2956 89.7078 99.2956C91.3679 99.2956 92.8378 99.6456 94.1178 100.346C95.4178 101.046 96.4278 102.006 97.1479 103.226C97.8878 104.446 98.2578 105.866 98.2578 107.486C98.2578 109.066 97.8878 110.476 97.1478 111.716C96.4278 112.956 95.4178 113.936 94.1178 114.656C92.8378 115.356 91.3678 115.706 89.7078 115.706ZM89.7078 112.496C90.6278 112.496 91.4478 112.296 92.1678 111.896C92.8878 111.496 93.4478 110.916 93.8478 110.156C94.2678 109.396 94.4778 108.506 94.4778 107.486C94.4778 106.446 94.2678 105.556 93.8478 104.816C93.4478 104.056 92.8878 103.476 92.1678 103.076C91.4478 102.676 90.6378 102.476 89.7378 102.476C88.8178 102.476 87.9978 102.676 87.2778 103.076C86.5778 103.476 86.0178 104.056 85.5978 104.816C85.1778 105.556 84.9678 106.446 84.9678 107.486C84.9678 108.506 85.1778 109.396 85.5978 110.156C86.0178 110.916 86.5778 111.496 87.2778 111.896C87.9978 112.296 88.8078 112.496 89.7078 112.496ZM101.844 115.496L101.844 99.4756L105.414 99.4756L105.414 103.886L104.994 102.596C105.474 101.516 106.224 100.696 107.244 100.136C108.284 99.5756 109.574 99.2956 111.114 99.2956L111.114 102.866C110.954 102.826 110.804 102.806 110.664 102.806C110.524 102.786 110.384 102.776 110.244 102.776C108.824 102.776 107.694 103.196 106.854 104.036C106.014 104.856 105.594 106.086 105.594 107.726L105.594 115.496L101.844 115.496ZM117.355 111.926L117.445 107.216L125.815 99.4756L130.315 99.4756L123.205 106.616L121.225 108.266L117.355 111.926ZM114.295 115.496L114.295 93.2356L118.045 93.2356L118.045 115.496L114.295 115.496ZM126.385 115.496L120.535 108.266L122.905 105.266L130.945 115.496L126.385 115.496ZM133.367 115.496L133.367 99.4756L137.117 99.4756L137.117 115.496L133.367 115.496ZM135.257 96.8356C134.557 96.8356 133.977 96.6156 133.517 96.1756C133.077 95.7356 132.857 95.2056 132.857 94.5856C132.857 93.9456 133.077 93.4156 133.517 92.9956C133.977 92.5556 134.557 92.3356 135.257 92.3356C135.957 92.3356 136.527 92.5456 136.967 92.9656C137.427 93.3656 137.657 93.8756 137.657 94.4956C137.657 95.1556 137.437 95.7156 136.997 96.1756C136.557 96.6156 135.977 96.8356 135.257 96.8356ZM151.129 99.2956C152.409 99.2956 153.549 99.5456 154.549 100.046C155.569 100.546 156.369 101.316 156.949 102.356C157.529 103.376 157.819 104.696 157.819 106.316L157.819 115.496L154.069 115.496L154.069 106.796C154.069 105.376 153.729 104.316 153.049 103.616C152.389 102.916 151.459 102.566 150.259 102.566C149.379 102.566 148.599 102.746 147.919 103.106C147.239 103.466 146.709 104.006 146.329 104.726C145.969 105.426 145.789 106.316 145.789 107.396L145.789 115.496L142.039 115.496L142.039 99.4756L145.609 99.4756L145.609 103.796L144.979 102.476C145.539 101.456 146.349 100.676 147.409 100.136C148.489 99.5756 149.729 99.2956 151.129 99.2956ZM169.866 121.526C168.386 121.526 166.936 121.326 165.516 120.926C164.116 120.546 162.966 119.986 162.066 119.246L163.746 116.426C164.446 117.006 165.326 117.466 166.386 117.806C167.466 118.166 168.556 118.346 169.656 118.346C171.416 118.346 172.706 117.936 173.526 117.116C174.346 116.316 174.756 115.106 174.756 113.486L174.756 110.636L175.056 107.006L174.936 103.376L174.936 99.4756L178.506 99.4756L178.506 113.066C178.506 115.966 177.766 118.096 176.286 119.456C174.806 120.836 172.666 121.526 169.866 121.526ZM169.386 114.776C167.866 114.776 166.486 114.456 165.246 113.816C164.026 113.156 163.056 112.246 162.336 111.086C161.636 109.926 161.286 108.566 161.286 107.006C161.286 105.466 161.636 104.116 162.336 102.956C163.056 101.796 164.026 100.896 165.246 100.256C166.486 99.6156 167.866 99.2956 169.386 99.2956C170.746 99.2956 171.966 99.5656 173.046 100.106C174.126 100.646 174.986 101.486 175.626 102.626C176.286 103.766 176.616 105.226 176.616 107.006C176.616 108.786 176.286 110.256 175.626 111.416C174.986 112.556 174.126 113.406 173.046 113.966C171.966 114.506 170.746 114.776 169.386 114.776ZM169.956 111.596C170.896 111.596 171.736 111.406 172.476 111.026C173.216 110.626 173.786 110.086 174.186 109.406C174.606 108.706 174.816 107.906 174.816 107.006C174.816 106.106 174.606 105.316 174.186 104.636C173.786 103.936 173.216 103.406 172.476 103.046C171.736 102.666 170.896 102.476 169.956 102.476C169.016 102.476 168.166 102.666 167.406 103.046C166.666 103.406 166.086 103.936 165.666 104.636C165.266 105.316 165.066 106.106 165.066 107.006C165.066 107.906 165.266 108.706 165.666 109.406C166.086 110.086 166.666 110.626 167.406 111.026C168.166 111.406 169.016 111.596 169.956 111.596ZM206.847 94.4956L210.747 94.4956L210.747 115.496L206.847 115.496L206.847 94.4956ZM195.987 115.496L192.087 115.496L192.087 94.4956L195.987 94.4956L195.987 115.496ZM207.147 106.496L195.657 106.496L195.657 103.166L207.147 103.166L207.147 106.496ZM223.214 115.706C221.574 115.706 220.114 115.356 218.834 114.656C217.554 113.936 216.544 112.956 215.804 111.716C215.064 110.476 214.694 109.066 214.694 107.486C214.694 105.886 215.064 104.476 215.804 103.256C216.544 102.016 217.554 101.046 218.834 100.346C220.114 99.6456 221.574 99.2956 223.214 99.2956C224.874 99.2956 226.344 99.6456 227.624 100.346C228.924 101.046 229.934 102.006 230.654 103.226C231.394 104.446 231.764 105.866 231.764 107.486C231.764 109.066 231.394 110.476 230.654 111.716C229.934 112.956 228.924 113.936 227.624 114.656C226.344 115.356 224.874 115.706 223.214 115.706ZM223.214 112.496C224.134 112.496 224.954 112.296 225.674 111.896C226.394 111.496 226.954 110.916 227.354 110.156C227.774 109.396 227.984 108.506 227.984 107.486C227.984 106.446 227.774 105.556 227.354 104.816C226.954 104.056 226.394 103.476 225.674 103.076C224.954 102.676 224.144 102.476 223.244 102.476C222.324 102.476 221.504 102.676 220.784 103.076C220.084 103.476 219.524 104.056 219.104 104.816C218.684 105.556 218.474 106.446 218.474 107.486C218.474 108.506 218.684 109.396 219.104 110.156C219.524 110.916 220.084 111.496 220.784 111.896C221.504 112.296 222.314 112.496 223.214 112.496ZM242.13 115.706C240.77 115.706 239.57 115.456 238.53 114.956C237.49 114.436 236.68 113.656 236.1 112.616C235.52 111.556 235.23 110.226 235.23 108.626L235.23 99.4756L238.98 99.4756L238.98 108.116C238.98 109.556 239.3 110.636 239.94 111.356C240.6 112.056 241.53 112.406 242.73 112.406C243.61 112.406 244.37 112.226 245.01 111.866C245.67 111.506 246.18 110.966 246.54 110.246C246.92 109.526 247.11 108.636 247.11 107.576L247.11 99.4756L250.86 99.4756L250.86 115.496L247.29 115.496L247.29 111.176L247.92 112.496C247.38 113.536 246.59 114.336 245.55 114.896C244.51 115.436 243.37 115.706 242.13 115.706ZM255.77 115.496L255.77 99.4756L259.34 99.4756L259.34 103.886L258.92 102.596C259.4 101.516 260.15 100.696 261.17 100.136C262.21 99.5756 263.5 99.2956 265.04 99.2956L265.04 102.866C264.88 102.826 264.73 102.806 264.59 102.806C264.45 102.786 264.31 102.776 264.17 102.776C262.75 102.776 261.62 103.196 260.78 104.036C259.94 104.856 259.52 106.086 259.52 107.726L259.52 115.496L255.77 115.496ZM273.317 115.706C271.977 115.706 270.687 115.536 269.447 115.196C268.227 114.836 267.257 114.406 266.537 113.906L267.977 111.056C268.697 111.516 269.557 111.896 270.557 112.196C271.557 112.496 272.557 112.646 273.557 112.646C274.737 112.646 275.587 112.486 276.107 112.166C276.647 111.846 276.917 111.416 276.917 110.876C276.917 110.436 276.737 110.106 276.377 109.886C276.017 109.646 275.547 109.466 274.967 109.346C274.387 109.226 273.737 109.116 273.017 109.016C272.317 108.916 271.607 108.786 270.887 108.626C270.187 108.446 269.547 108.196 268.967 107.876C268.387 107.536 267.917 107.086 267.557 106.526C267.197 105.966 267.017 105.226 267.017 104.306C267.017 103.286 267.307 102.406 267.887 101.666C268.467 100.906 269.277 100.326 270.317 99.9256C271.377 99.5056 272.627 99.2956 274.067 99.2956C275.147 99.2956 276.237 99.4156 277.337 99.6556C278.437 99.8956 279.347 100.236 280.067 100.676L278.627 103.526C277.867 103.066 277.097 102.756 276.317 102.596C275.557 102.416 274.797 102.326 274.037 102.326C272.897 102.326 272.047 102.496 271.487 102.836C270.947 103.176 270.677 103.606 270.677 104.126C270.677 104.606 270.857 104.966 271.217 105.206C271.577 105.446 272.047 105.636 272.627 105.776C273.207 105.916 273.847 106.036 274.547 106.136C275.267 106.216 275.977 106.346 276.677 106.526C277.377 106.706 278.017 106.956 278.597 107.276C279.197 107.576 279.677 108.006 280.037 108.566C280.397 109.126 280.577 109.856 280.577 110.756C280.577 111.756 280.277 112.626 279.677 113.366C279.097 114.106 278.267 114.686 277.187 115.106C276.107 115.506 274.817 115.706 273.317 115.706Z" fill="#1C1C1C"/>
<path d="M39.1551 136.824C39.1071 136.904 39.0538 136.965 38.9951 137.008C38.9418 137.045 38.8751 137.064 38.7951 137.064C38.7045 137.064 38.5978 137.018 38.4751 136.928C38.3525 136.837 38.1978 136.738 38.0111 136.632C37.8298 136.52 37.6085 136.418 37.3471 136.328C37.0911 136.237 36.7791 136.192 36.4111 136.192C36.0645 136.192 35.7578 136.24 35.4911 136.336C35.2298 136.426 35.0085 136.552 34.8271 136.712C34.6511 136.872 34.5178 137.061 34.4271 137.28C34.3365 137.493 34.2911 137.725 34.2911 137.976C34.2911 138.296 34.3685 138.562 34.5231 138.776C34.6831 138.984 34.8911 139.162 35.1471 139.312C35.4085 139.461 35.7018 139.592 36.0271 139.704C36.3578 139.81 36.6938 139.922 37.0351 140.04C37.3818 140.157 37.7178 140.29 38.0431 140.44C38.3738 140.584 38.6671 140.768 38.9231 140.992C39.1845 141.216 39.3925 141.49 39.5471 141.816C39.7071 142.141 39.7871 142.541 39.7871 143.016C39.7871 143.517 39.7018 143.989 39.5311 144.432C39.3605 144.869 39.1098 145.25 38.7791 145.576C38.4538 145.901 38.0511 146.157 37.5711 146.344C37.0965 146.53 36.5551 146.624 35.9471 146.624C35.2005 146.624 34.5231 146.49 33.9151 146.224C33.3071 145.952 32.7871 145.586 32.3551 145.128L32.8031 144.392C32.8458 144.333 32.8965 144.285 32.9551 144.248C33.0191 144.205 33.0885 144.184 33.1631 144.184C33.2325 144.184 33.3098 144.213 33.3951 144.272C33.4858 144.325 33.5871 144.394 33.6991 144.48C33.8111 144.565 33.9391 144.658 34.0831 144.76C34.2271 144.861 34.3898 144.954 34.5711 145.04C34.7578 145.125 34.9685 145.197 35.2031 145.256C35.4378 145.309 35.7018 145.336 35.9951 145.336C36.3631 145.336 36.6911 145.285 36.9791 145.184C37.2671 145.082 37.5098 144.941 37.7071 144.76C37.9098 144.573 38.0645 144.352 38.1711 144.096C38.2778 143.84 38.3311 143.554 38.3311 143.24C38.3311 142.893 38.2511 142.61 38.0911 142.392C37.9365 142.168 37.7311 141.981 37.4751 141.832C37.2191 141.682 36.9258 141.557 36.5951 141.456C36.2645 141.349 35.9285 141.242 35.5871 141.136C35.2458 141.024 34.9098 140.896 34.5791 140.752C34.2485 140.608 33.9551 140.421 33.6991 140.192C33.4431 139.962 33.2351 139.677 33.0751 139.336C32.9205 138.989 32.8431 138.562 32.8431 138.056C32.8431 137.65 32.9205 137.258 33.0751 136.88C33.2351 136.501 33.4645 136.165 33.7631 135.872C34.0671 135.578 34.4378 135.344 34.8751 135.168C35.3178 134.992 35.8245 134.904 36.3951 134.904C37.0351 134.904 37.6165 135.005 38.1391 135.208C38.6671 135.41 39.1311 135.704 39.5311 136.088L39.1551 136.824ZM48.1504 138.392L48.1504 146.496L47.3024 146.496C47.0997 146.496 46.9717 146.397 46.9184 146.2L46.8064 145.328C46.4544 145.717 46.0597 146.032 45.6224 146.272C45.1851 146.506 44.6837 146.624 44.1184 146.624C43.6757 146.624 43.2837 146.552 42.9424 146.408C42.6064 146.258 42.3237 146.05 42.0944 145.784C41.8651 145.517 41.6917 145.194 41.5744 144.816C41.4624 144.437 41.4064 144.018 41.4064 143.56L41.4064 138.392L42.8304 138.392L42.8304 143.56C42.8304 144.173 42.9691 144.648 43.2464 144.984C43.5291 145.32 43.9584 145.488 44.5344 145.488C44.9557 145.488 45.3477 145.389 45.7104 145.192C46.0784 144.989 46.4171 144.712 46.7264 144.36L46.7264 138.392L48.1504 138.392ZM51.7523 139.568C51.9283 139.37 52.1149 139.192 52.3123 139.032C52.5096 138.872 52.7176 138.736 52.9363 138.624C53.1603 138.506 53.3949 138.418 53.6403 138.36C53.8909 138.296 54.1603 138.264 54.4483 138.264C54.8909 138.264 55.2803 138.338 55.6163 138.488C55.9576 138.632 56.2403 138.84 56.4643 139.112C56.6936 139.378 56.8669 139.701 56.9843 140.08C57.1016 140.458 57.1603 140.877 57.1603 141.336L57.1603 146.496L55.7283 146.496L55.7283 141.336C55.7283 140.722 55.5869 140.248 55.3043 139.912C55.0269 139.57 54.6029 139.4 54.0323 139.4C53.6109 139.4 53.2163 139.501 52.8483 139.704C52.4856 139.906 52.1496 140.181 51.8403 140.528L51.8403 146.496L50.4083 146.496L50.4083 138.392L51.2643 138.392C51.4669 138.392 51.5923 138.49 51.6403 138.688L51.7523 139.568ZM64.6101 140.32C64.3435 139.962 64.0555 139.714 63.7461 139.576C63.4368 139.432 63.0901 139.36 62.7061 139.36C61.9541 139.36 61.3755 139.629 60.9701 140.168C60.5648 140.706 60.3621 141.474 60.3621 142.472C60.3621 143 60.4075 143.453 60.4981 143.832C60.5888 144.205 60.7221 144.514 60.8981 144.76C61.0741 145 61.2901 145.176 61.5461 145.288C61.8021 145.4 62.0928 145.456 62.4181 145.456C62.8875 145.456 63.2955 145.349 63.6421 145.136C63.9941 144.922 64.3168 144.621 64.6101 144.232L64.6101 140.32ZM66.0341 134.712L66.0341 146.496L65.1861 146.496C64.9835 146.496 64.8555 146.397 64.8021 146.2L64.6741 145.216C64.3275 145.632 63.9328 145.968 63.4901 146.224C63.0475 146.48 62.5355 146.608 61.9541 146.608C61.4901 146.608 61.0688 146.52 60.6901 146.344C60.3115 146.162 59.9888 145.898 59.7221 145.552C59.4555 145.205 59.2501 144.773 59.1061 144.256C58.9621 143.738 58.8901 143.144 58.8901 142.472C58.8901 141.874 58.9701 141.32 59.1301 140.808C59.2901 140.29 59.5195 139.842 59.8181 139.464C60.1168 139.085 60.4821 138.789 60.9141 138.576C61.3515 138.357 61.8421 138.248 62.3861 138.248C62.8821 138.248 63.3061 138.333 63.6581 138.504C64.0155 138.669 64.3328 138.901 64.6101 139.2L64.6101 134.712L66.0341 134.712ZM72.6753 142.848C72.0193 142.869 71.4593 142.922 70.9953 143.008C70.5366 143.088 70.1606 143.194 69.8673 143.328C69.5793 143.461 69.3686 143.618 69.2353 143.8C69.1073 143.981 69.0433 144.184 69.0433 144.408C69.0433 144.621 69.0779 144.805 69.1473 144.96C69.2166 145.114 69.3099 145.242 69.4273 145.344C69.5499 145.44 69.6913 145.512 69.8513 145.56C70.0166 145.602 70.1926 145.624 70.3793 145.624C70.6299 145.624 70.8593 145.6 71.0673 145.552C71.2753 145.498 71.4699 145.424 71.6513 145.328C71.8379 145.232 72.0139 145.117 72.1793 144.984C72.3499 144.85 72.5153 144.698 72.6753 144.528L72.6753 142.848ZM68.0753 139.536C68.5233 139.104 69.0059 138.781 69.5233 138.568C70.0406 138.354 70.6139 138.248 71.2433 138.248C71.6966 138.248 72.0993 138.322 72.4513 138.472C72.8033 138.621 73.0993 138.829 73.3393 139.096C73.5793 139.362 73.7606 139.685 73.8833 140.064C74.0059 140.442 74.0673 140.858 74.0673 141.312L74.0673 146.496L73.4353 146.496C73.2966 146.496 73.1899 146.474 73.1153 146.432C73.0406 146.384 72.9819 146.293 72.9393 146.16L72.7793 145.392C72.5659 145.589 72.3579 145.765 72.1553 145.92C71.9526 146.069 71.7393 146.197 71.5153 146.304C71.2913 146.405 71.0513 146.482 70.7953 146.536C70.5446 146.594 70.2646 146.624 69.9553 146.624C69.6406 146.624 69.3446 146.581 69.0673 146.496C68.7899 146.405 68.5473 146.272 68.3393 146.096C68.1366 145.92 67.9739 145.698 67.8513 145.432C67.7339 145.16 67.6753 144.84 67.6753 144.472C67.6753 144.152 67.7633 143.845 67.9393 143.552C68.1153 143.253 68.4006 142.989 68.7953 142.76C69.1899 142.53 69.7046 142.344 70.3393 142.2C70.9739 142.05 71.7526 141.965 72.6753 141.944L72.6753 141.312C72.6753 140.682 72.5393 140.208 72.2673 139.888C71.9953 139.562 71.5979 139.4 71.0753 139.4C70.7233 139.4 70.4273 139.445 70.1873 139.536C69.9526 139.621 69.7473 139.72 69.5713 139.832C69.4006 139.938 69.2513 140.037 69.1233 140.128C69.0006 140.213 68.8779 140.256 68.7553 140.256C68.6593 140.256 68.5766 140.232 68.5073 140.184C68.4379 140.13 68.3793 140.066 68.3313 139.992L68.0753 139.536ZM83.0409 138.392L78.5209 148.888C78.4729 148.994 78.4116 149.08 78.3369 149.144C78.2676 149.208 78.1582 149.24 78.0089 149.24L76.9529 149.24L78.4329 146.024L75.0889 138.392L76.3209 138.392C76.4436 138.392 76.5396 138.424 76.6089 138.488C76.6836 138.546 76.7342 138.613 76.7609 138.688L78.9289 143.792C79.0142 144.016 79.0862 144.25 79.1449 144.496C79.2196 144.245 79.2996 144.008 79.3849 143.784L81.4889 138.688C81.5209 138.602 81.5742 138.533 81.6489 138.48C81.7289 138.421 81.8169 138.392 81.9129 138.392L83.0409 138.392ZM96.5431 136.336L92.8311 136.336L92.8311 146.496L91.2871 146.496L91.2871 136.336L87.5671 136.336L87.5671 135.032L96.5431 135.032L96.5431 136.336ZM99.3711 138.264C99.9631 138.264 100.496 138.362 100.971 138.56C101.446 138.757 101.851 139.037 102.187 139.4C102.523 139.762 102.779 140.202 102.955 140.72C103.136 141.232 103.227 141.805 103.227 142.44C103.227 143.08 103.136 143.656 102.955 144.168C102.779 144.68 102.523 145.117 102.187 145.48C101.851 145.842 101.446 146.122 100.971 146.32C100.496 146.512 99.9631 146.608 99.3711 146.608C98.7738 146.608 98.2351 146.512 97.7551 146.32C97.2805 146.122 96.8751 145.842 96.5391 145.48C96.2031 145.117 95.9445 144.68 95.7631 144.168C95.5871 143.656 95.4991 143.08 95.4991 142.44C95.4991 141.805 95.5871 141.232 95.7631 140.72C95.9445 140.202 96.2031 139.762 96.5391 139.4C96.8751 139.037 97.2805 138.757 97.7551 138.56C98.2351 138.362 98.7738 138.264 99.3711 138.264ZM99.3711 145.496C100.171 145.496 100.768 145.229 101.163 144.696C101.558 144.157 101.755 143.408 101.755 142.448C101.755 141.482 101.558 140.73 101.163 140.192C100.768 139.653 100.171 139.384 99.3711 139.384C98.9658 139.384 98.6111 139.453 98.3071 139.592C98.0085 139.73 97.7578 139.93 97.5551 140.192C97.3578 140.453 97.2085 140.776 97.1071 141.16C97.0111 141.538 96.9631 141.968 96.9631 142.448C96.9631 143.408 97.1605 144.157 97.5551 144.696C97.9551 145.229 98.5605 145.496 99.3711 145.496ZM111.015 136.296L111.015 140.304L115.727 140.304L115.727 141.568L111.015 141.568L111.015 146.496L109.463 146.496L109.463 135.032L116.527 135.032L116.527 136.296L111.015 136.296ZM118.838 140.016C119.094 139.461 119.409 139.029 119.782 138.72C120.156 138.405 120.612 138.248 121.15 138.248C121.321 138.248 121.484 138.266 121.638 138.304C121.798 138.341 121.94 138.4 122.062 138.48L121.958 139.544C121.926 139.677 121.846 139.744 121.718 139.744C121.644 139.744 121.534 139.728 121.39 139.696C121.246 139.664 121.084 139.648 120.902 139.648C120.646 139.648 120.417 139.685 120.214 139.76C120.017 139.834 119.838 139.946 119.678 140.096C119.524 140.24 119.382 140.421 119.254 140.64C119.132 140.853 119.02 141.098 118.918 141.376L118.918 146.496L117.486 146.496L117.486 138.392L118.302 138.392C118.457 138.392 118.564 138.421 118.622 138.48C118.681 138.538 118.721 138.64 118.742 138.784L118.838 140.016ZM124.819 138.392L124.819 146.496L123.395 146.496L123.395 138.392L124.819 138.392ZM125.123 135.848C125.123 135.986 125.093 136.117 125.035 136.24C124.981 136.357 124.907 136.464 124.811 136.56C124.72 136.65 124.611 136.722 124.483 136.776C124.36 136.829 124.229 136.856 124.091 136.856C123.952 136.856 123.821 136.829 123.699 136.776C123.581 136.722 123.477 136.65 123.387 136.56C123.296 136.464 123.224 136.357 123.171 136.24C123.117 136.117 123.091 135.986 123.091 135.848C123.091 135.709 123.117 135.578 123.171 135.456C123.224 135.328 123.296 135.218 123.387 135.128C123.477 135.032 123.581 134.957 123.699 134.904C123.821 134.85 123.952 134.824 124.091 134.824C124.229 134.824 124.36 134.85 124.483 134.904C124.611 134.957 124.72 135.032 124.811 135.128C124.907 135.218 124.981 135.328 125.035 135.456C125.093 135.578 125.123 135.709 125.123 135.848ZM132.438 140.32C132.172 139.962 131.884 139.714 131.574 139.576C131.265 139.432 130.918 139.36 130.534 139.36C129.782 139.36 129.204 139.629 128.798 140.168C128.393 140.706 128.19 141.474 128.19 142.472C128.19 143 128.236 143.453 128.326 143.832C128.417 144.205 128.55 144.514 128.726 144.76C128.902 145 129.118 145.176 129.374 145.288C129.63 145.4 129.921 145.456 130.246 145.456C130.716 145.456 131.124 145.349 131.47 145.136C131.822 144.922 132.145 144.621 132.438 144.232L132.438 140.32ZM133.862 134.712L133.862 146.496L133.014 146.496C132.812 146.496 132.684 146.397 132.63 146.2L132.502 145.216C132.156 145.632 131.761 145.968 131.318 146.224C130.876 146.48 130.364 146.608 129.782 146.608C129.318 146.608 128.897 146.52 128.518 146.344C128.14 146.162 127.817 145.898 127.55 145.552C127.284 145.205 127.078 144.773 126.934 144.256C126.79 143.738 126.718 143.144 126.718 142.472C126.718 141.874 126.798 141.32 126.958 140.808C127.118 140.29 127.348 139.842 127.646 139.464C127.945 139.085 128.31 138.789 128.742 138.576C129.18 138.357 129.67 138.248 130.214 138.248C130.71 138.248 131.134 138.333 131.486 138.504C131.844 138.669 132.161 138.901 132.438 139.2L132.438 134.712L133.862 134.712ZM140.503 142.848C139.847 142.869 139.287 142.922 138.823 143.008C138.365 143.088 137.989 143.194 137.695 143.328C137.407 143.461 137.197 143.618 137.063 143.8C136.935 143.981 136.871 144.184 136.871 144.408C136.871 144.621 136.906 144.805 136.975 144.96C137.045 145.114 137.138 145.242 137.255 145.344C137.378 145.44 137.519 145.512 137.679 145.56C137.845 145.602 138.021 145.624 138.207 145.624C138.458 145.624 138.687 145.6 138.895 145.552C139.103 145.498 139.298 145.424 139.479 145.328C139.666 145.232 139.842 145.117 140.007 144.984C140.178 144.85 140.343 144.698 140.503 144.528L140.503 142.848ZM135.903 139.536C136.351 139.104 136.834 138.781 137.351 138.568C137.869 138.354 138.442 138.248 139.071 138.248C139.525 138.248 139.927 138.322 140.279 138.472C140.631 138.621 140.927 138.829 141.167 139.096C141.407 139.362 141.589 139.685 141.711 140.064C141.834 140.442 141.895 140.858 141.895 141.312L141.895 146.496L141.263 146.496C141.125 146.496 141.018 146.474 140.943 146.432C140.869 146.384 140.81 146.293 140.767 146.16L140.607 145.392C140.394 145.589 140.186 145.765 139.983 145.92C139.781 146.069 139.567 146.197 139.343 146.304C139.119 146.405 138.879 146.482 138.623 146.536C138.373 146.594 138.093 146.624 137.783 146.624C137.469 146.624 137.173 146.581 136.895 146.496C136.618 146.405 136.375 146.272 136.167 146.096C135.965 145.92 135.802 145.698 135.679 145.432C135.562 145.16 135.503 144.84 135.503 144.472C135.503 144.152 135.591 143.845 135.767 143.552C135.943 143.253 136.229 142.989 136.623 142.76C137.018 142.53 137.533 142.344 138.167 142.2C138.802 142.05 139.581 141.965 140.503 141.944L140.503 141.312C140.503 140.682 140.367 140.208 140.095 139.888C139.823 139.562 139.426 139.4 138.903 139.4C138.551 139.4 138.255 139.445 138.015 139.536C137.781 139.621 137.575 139.72 137.399 139.832C137.229 139.938 137.079 140.037 136.951 140.128C136.829 140.213 136.706 140.256 136.583 140.256C136.487 140.256 136.405 140.232 136.335 140.184C136.266 140.13 136.207 140.066 136.159 139.992L135.903 139.536ZM150.869 138.392L146.349 148.888C146.301 148.994 146.24 149.08 146.165 149.144C146.096 149.208 145.986 149.24 145.837 149.24L144.781 149.24L146.261 146.024L142.917 138.392L144.149 138.392C144.272 138.392 144.368 138.424 144.437 138.488C144.512 138.546 144.562 138.613 144.589 138.688L146.757 143.792C146.842 144.016 146.914 144.25 146.973 144.496C147.048 144.245 147.128 144.008 147.213 143.784L149.317 138.688C149.349 138.602 149.402 138.533 149.477 138.48C149.557 138.421 149.645 138.392 149.741 138.392L150.869 138.392ZM156.966 138.4C156.966 138.762 157.017 139.088 157.118 139.376C157.225 139.658 157.374 139.898 157.566 140.096C157.763 140.293 158.001 140.442 158.278 140.544C158.561 140.645 158.875 140.696 159.222 140.696C159.606 140.696 159.945 140.634 160.238 140.512C160.537 140.384 160.787 140.216 160.99 140.008C161.193 139.8 161.347 139.56 161.454 139.288C161.561 139.016 161.614 138.733 161.614 138.44C161.614 138.082 161.555 137.76 161.438 137.472C161.326 137.178 161.169 136.93 160.966 136.728C160.763 136.525 160.521 136.37 160.238 136.264C159.961 136.152 159.654 136.096 159.318 136.096C158.966 136.096 158.646 136.154 158.358 136.272C158.07 136.384 157.822 136.541 157.614 136.744C157.406 136.946 157.246 137.189 157.134 137.472C157.022 137.754 156.966 138.064 156.966 138.4ZM160.294 141.928C160.411 141.773 160.521 141.626 160.622 141.488C160.723 141.349 160.819 141.21 160.91 141.072C160.617 141.306 160.286 141.485 159.918 141.608C159.55 141.73 159.161 141.792 158.75 141.792C158.318 141.792 157.907 141.72 157.518 141.576C157.134 141.432 156.795 141.221 156.502 140.944C156.209 140.661 155.974 140.317 155.798 139.912C155.627 139.501 155.542 139.032 155.542 138.504C155.542 138.002 155.635 137.533 155.822 137.096C156.009 136.658 156.27 136.277 156.606 135.952C156.942 135.626 157.342 135.37 157.806 135.184C158.27 134.997 158.779 134.904 159.334 134.904C159.883 134.904 160.382 134.994 160.83 135.176C161.278 135.357 161.662 135.61 161.982 135.936C162.302 136.261 162.547 136.65 162.718 137.104C162.894 137.557 162.982 138.058 162.982 138.608C162.982 138.938 162.95 139.253 162.886 139.552C162.827 139.845 162.739 140.136 162.622 140.424C162.51 140.706 162.371 140.989 162.206 141.272C162.041 141.549 161.854 141.834 161.646 142.128L158.854 146.16C158.785 146.261 158.686 146.344 158.558 146.408C158.43 146.466 158.283 146.496 158.118 146.496L156.806 146.496L160.294 141.928ZM164.871 145.616C164.871 145.477 164.895 145.346 164.943 145.224C164.997 145.101 165.066 144.994 165.151 144.904C165.242 144.813 165.349 144.741 165.471 144.688C165.594 144.634 165.725 144.608 165.863 144.608C166.002 144.608 166.133 144.634 166.255 144.688C166.378 144.741 166.485 144.813 166.575 144.904C166.666 144.994 166.738 145.101 166.791 145.224C166.845 145.346 166.871 145.477 166.871 145.616C166.871 145.76 166.845 145.893 166.791 146.016C166.738 146.133 166.666 146.237 166.575 146.328C166.485 146.418 166.378 146.488 166.255 146.536C166.133 146.589 166.002 146.616 165.863 146.616C165.725 146.616 165.594 146.589 165.471 146.536C165.349 146.488 165.242 146.418 165.151 146.328C165.066 146.237 164.997 146.133 164.943 146.016C164.895 145.893 164.871 145.76 164.871 145.616ZM176.565 140.768C176.565 141.77 176.455 142.64 176.237 143.376C176.023 144.106 175.73 144.712 175.357 145.192C174.983 145.672 174.541 146.029 174.029 146.264C173.522 146.498 172.978 146.616 172.397 146.616C171.81 146.616 171.263 146.498 170.757 146.264C170.255 146.029 169.818 145.672 169.445 145.192C169.071 144.712 168.778 144.106 168.565 143.376C168.351 142.64 168.245 141.77 168.245 140.768C168.245 139.765 168.351 138.896 168.565 138.16C168.778 137.424 169.071 136.816 169.445 136.336C169.818 135.85 170.255 135.49 170.757 135.256C171.263 135.021 171.81 134.904 172.397 134.904C172.978 134.904 173.522 135.021 174.029 135.256C174.541 135.49 174.983 135.85 175.357 136.336C175.73 136.816 176.023 137.424 176.237 138.16C176.455 138.896 176.565 139.765 176.565 140.768ZM175.085 140.768C175.085 139.893 175.01 139.16 174.861 138.568C174.717 137.97 174.519 137.49 174.269 137.128C174.023 136.765 173.738 136.506 173.413 136.352C173.087 136.192 172.749 136.112 172.397 136.112C172.045 136.112 171.706 136.192 171.381 136.352C171.055 136.506 170.77 136.765 170.525 137.128C170.279 137.49 170.082 137.97 169.933 138.568C169.789 139.16 169.717 139.893 169.717 140.768C169.717 141.642 169.789 142.376 169.933 142.968C170.082 143.56 170.279 144.037 170.525 144.4C170.77 144.762 171.055 145.024 171.381 145.184C171.706 145.338 172.045 145.416 172.397 145.416C172.749 145.416 173.087 145.338 173.413 145.184C173.738 145.024 174.023 144.762 174.269 144.4C174.519 144.037 174.717 143.56 174.861 142.968C175.01 142.376 175.085 141.642 175.085 140.768ZM185.846 140.768C185.846 141.77 185.737 142.64 185.518 143.376C185.305 144.106 185.011 144.712 184.638 145.192C184.265 145.672 183.822 146.029 183.31 146.264C182.803 146.498 182.259 146.616 181.678 146.616C181.091 146.616 180.545 146.498 180.038 146.264C179.537 146.029 179.099 145.672 178.726 145.192C178.353 144.712 178.059 144.106 177.846 143.376C177.633 142.64 177.526 141.77 177.526 140.768C177.526 139.765 177.633 138.896 177.846 138.16C178.059 137.424 178.353 136.816 178.726 136.336C179.099 135.85 179.537 135.49 180.038 135.256C180.545 135.021 181.091 134.904 181.678 134.904C182.259 134.904 182.803 135.021 183.31 135.256C183.822 135.49 184.265 135.85 184.638 136.336C185.011 136.816 185.305 137.424 185.518 138.16C185.737 138.896 185.846 139.765 185.846 140.768ZM184.366 140.768C184.366 139.893 184.291 139.16 184.142 138.568C183.998 137.97 183.801 137.49 183.55 137.128C183.305 136.765 183.019 136.506 182.694 136.352C182.369 136.192 182.03 136.112 181.678 136.112C181.326 136.112 180.987 136.192 180.662 136.352C180.337 136.506 180.051 136.765 179.806 137.128C179.561 137.49 179.363 137.97 179.214 138.568C179.07 139.16 178.998 139.893 178.998 140.768C178.998 141.642 179.07 142.376 179.214 142.968C179.363 143.56 179.561 144.037 179.806 144.4C180.051 144.762 180.337 145.024 180.662 145.184C180.987 145.338 181.326 145.416 181.678 145.416C182.03 145.416 182.369 145.338 182.694 145.184C183.019 145.024 183.305 144.762 183.55 144.4C183.801 144.037 183.998 143.56 184.142 142.968C184.291 142.376 184.366 141.642 184.366 140.768ZM195.941 142.848C195.285 142.869 194.725 142.922 194.261 143.008C193.802 143.088 193.426 143.194 193.133 143.328C192.845 143.461 192.634 143.618 192.501 143.8C192.373 143.981 192.309 144.184 192.309 144.408C192.309 144.621 192.344 144.805 192.413 144.96C192.482 145.114 192.576 145.242 192.693 145.344C192.816 145.44 192.957 145.512 193.117 145.56C193.282 145.602 193.458 145.624 193.645 145.624C193.896 145.624 194.125 145.6 194.333 145.552C194.541 145.498 194.736 145.424 194.917 145.328C195.104 145.232 195.28 145.117 195.445 144.984C195.616 144.85 195.781 144.698 195.941 144.528L195.941 142.848ZM191.341 139.536C191.789 139.104 192.272 138.781 192.789 138.568C193.306 138.354 193.88 138.248 194.509 138.248C194.962 138.248 195.365 138.322 195.717 138.472C196.069 138.621 196.365 138.829 196.605 139.096C196.845 139.362 197.026 139.685 197.149 140.064C197.272 140.442 197.333 140.858 197.333 141.312L197.333 146.496L196.701 146.496C196.562 146.496 196.456 146.474 196.381 146.432C196.306 146.384 196.248 146.293 196.205 146.16L196.045 145.392C195.832 145.589 195.624 145.765 195.421 145.92C195.218 146.069 195.005 146.197 194.781 146.304C194.557 146.405 194.317 146.482 194.061 146.536C193.81 146.594 193.53 146.624 193.221 146.624C192.906 146.624 192.61 146.581 192.333 146.496C192.056 146.405 191.813 146.272 191.605 146.096C191.402 145.92 191.24 145.698 191.117 145.432C191 145.16 190.941 144.84 190.941 144.472C190.941 144.152 191.029 143.845 191.205 143.552C191.381 143.253 191.666 142.989 192.061 142.76C192.456 142.53 192.97 142.344 193.605 142.2C194.24 142.05 195.018 141.965 195.941 141.944L195.941 141.312C195.941 140.682 195.805 140.208 195.533 139.888C195.261 139.562 194.864 139.4 194.341 139.4C193.989 139.4 193.693 139.445 193.453 139.536C193.218 139.621 193.013 139.72 192.837 139.832C192.666 139.938 192.517 140.037 192.389 140.128C192.266 140.213 192.144 140.256 192.021 140.256C191.925 140.256 191.842 140.232 191.773 140.184C191.704 140.13 191.645 140.066 191.597 139.992L191.341 139.536ZM199.502 146.496L199.502 138.392L200.358 138.392C200.561 138.392 200.686 138.49 200.734 138.688L200.838 139.52C201.137 139.152 201.473 138.85 201.846 138.616C202.219 138.381 202.651 138.264 203.142 138.264C203.686 138.264 204.126 138.416 204.462 138.72C204.803 139.024 205.049 139.434 205.198 139.952C205.315 139.658 205.465 139.405 205.646 139.192C205.833 138.978 206.041 138.802 206.27 138.664C206.499 138.525 206.742 138.424 206.998 138.36C207.259 138.296 207.523 138.264 207.79 138.264C208.217 138.264 208.595 138.333 208.926 138.472C209.262 138.605 209.545 138.802 209.774 139.064C210.009 139.325 210.187 139.648 210.31 140.032C210.433 140.41 210.494 140.845 210.494 141.336L210.494 146.496L209.062 146.496L209.062 141.336C209.062 140.701 208.923 140.221 208.646 139.896C208.369 139.565 207.969 139.4 207.446 139.4C207.211 139.4 206.987 139.442 206.774 139.528C206.566 139.608 206.382 139.728 206.222 139.888C206.062 140.048 205.934 140.25 205.838 140.496C205.747 140.736 205.702 141.016 205.702 141.336L205.702 146.496L204.27 146.496L204.27 141.336C204.27 140.685 204.139 140.2 203.878 139.88C203.617 139.56 203.235 139.4 202.734 139.4C202.382 139.4 202.057 139.496 201.758 139.688C201.459 139.874 201.185 140.13 200.934 140.456L200.934 146.496L199.502 146.496ZM216.624 141.096L220.576 141.096L220.576 142.304L216.624 142.304L216.624 141.096ZM233.799 145.408L233.799 146.496L227.655 146.496L227.655 145.408L230.111 145.408L230.111 137.592C230.111 137.357 230.119 137.12 230.135 136.88L228.095 138.632C228.026 138.69 227.957 138.728 227.887 138.744C227.818 138.754 227.754 138.754 227.695 138.744C227.637 138.733 227.581 138.712 227.527 138.68C227.479 138.648 227.442 138.613 227.415 138.576L226.967 137.96L230.383 135.008L231.543 135.008L231.543 145.408L233.799 145.408ZM243.737 140.768C243.737 141.77 243.627 142.64 243.409 143.376C243.195 144.106 242.902 144.712 242.529 145.192C242.155 145.672 241.713 146.029 241.201 146.264C240.694 146.498 240.15 146.616 239.569 146.616C238.982 146.616 238.435 146.498 237.929 146.264C237.427 146.029 236.99 145.672 236.617 145.192C236.243 144.712 235.95 144.106 235.737 143.376C235.523 142.64 235.417 141.77 235.417 140.768C235.417 139.765 235.523 138.896 235.737 138.16C235.95 137.424 236.243 136.816 236.617 136.336C236.99 135.85 237.427 135.49 237.929 135.256C238.435 135.021 238.982 134.904 239.569 134.904C240.15 134.904 240.694 135.021 241.201 135.256C241.713 135.49 242.155 135.85 242.529 136.336C242.902 136.816 243.195 137.424 243.409 138.16C243.627 138.896 243.737 139.765 243.737 140.768ZM242.257 140.768C242.257 139.893 242.182 139.16 242.033 138.568C241.889 137.97 241.691 137.49 241.441 137.128C241.195 136.765 240.91 136.506 240.585 136.352C240.259 136.192 239.921 136.112 239.569 136.112C239.217 136.112 238.878 136.192 238.553 136.352C238.227 136.506 237.942 136.765 237.697 137.128C237.451 137.49 237.254 137.97 237.105 138.568C236.961 139.16 236.889 139.893 236.889 140.768C236.889 141.642 236.961 142.376 237.105 142.968C237.254 143.56 237.451 144.037 237.697 144.4C237.942 144.762 238.227 145.024 238.553 145.184C238.878 145.338 239.217 145.416 239.569 145.416C239.921 145.416 240.259 145.338 240.585 145.184C240.91 145.024 241.195 144.762 241.441 144.4C241.691 144.037 241.889 143.56 242.033 142.968C242.182 142.376 242.257 141.642 242.257 140.768ZM245.106 145.616C245.106 145.477 245.13 145.346 245.178 145.224C245.231 145.101 245.3 144.994 245.386 144.904C245.476 144.813 245.583 144.741 245.706 144.688C245.828 144.634 245.959 144.608 246.098 144.608C246.236 144.608 246.367 144.634 246.49 144.688C246.612 144.741 246.719 144.813 246.81 144.904C246.9 144.994 246.972 145.101 247.026 145.224C247.079 145.346 247.106 145.477 247.106 145.616C247.106 145.76 247.079 145.893 247.026 146.016C246.972 146.133 246.9 146.237 246.81 146.328C246.719 146.418 246.612 146.488 246.49 146.536C246.367 146.589 246.236 146.616 246.098 146.616C245.959 146.616 245.828 146.589 245.706 146.536C245.583 146.488 245.476 146.418 245.386 146.328C245.3 146.237 245.231 146.133 245.178 146.016C245.13 145.893 245.106 145.76 245.106 145.616ZM256.799 140.768C256.799 141.77 256.69 142.64 256.471 143.376C256.258 144.106 255.964 144.712 255.591 145.192C255.218 145.672 254.775 146.029 254.263 146.264C253.756 146.498 253.212 146.616 252.631 146.616C252.044 146.616 251.498 146.498 250.991 146.264C250.49 146.029 250.052 145.672 249.679 145.192C249.306 144.712 249.012 144.106 248.799 143.376C248.586 142.64 248.479 141.77 248.479 140.768C248.479 139.765 248.586 138.896 248.799 138.16C249.012 137.424 249.306 136.816 249.679 136.336C250.052 135.85 250.49 135.49 250.991 135.256C251.498 135.021 252.044 134.904 252.631 134.904C253.212 134.904 253.756 135.021 254.263 135.256C254.775 135.49 255.218 135.85 255.591 136.336C255.964 136.816 256.258 137.424 256.471 138.16C256.69 138.896 256.799 139.765 256.799 140.768ZM255.319 140.768C255.319 139.893 255.244 139.16 255.095 138.568C254.951 137.97 254.754 137.49 254.503 137.128C254.258 136.765 253.972 136.506 253.647 136.352C253.322 136.192 252.983 136.112 252.631 136.112C252.279 136.112 251.94 136.192 251.615 136.352C251.29 136.506 251.004 136.765 250.759 137.128C250.514 137.49 250.316 137.97 250.167 138.568C250.023 139.16 249.951 139.893 249.951 140.768C249.951 141.642 250.023 142.376 250.167 142.968C250.316 143.56 250.514 144.037 250.759 144.4C251.004 144.762 251.29 145.024 251.615 145.184C251.94 145.338 252.279 145.416 252.631 145.416C252.983 145.416 253.322 145.338 253.647 145.184C253.972 145.024 254.258 144.762 254.503 144.4C254.754 144.037 254.951 143.56 255.095 142.968C255.244 142.376 255.319 141.642 255.319 140.768ZM266.08 140.768C266.08 141.77 265.971 142.64 265.752 143.376C265.539 144.106 265.246 144.712 264.872 145.192C264.499 145.672 264.056 146.029 263.544 146.264C263.038 146.498 262.494 146.616 261.912 146.616C261.326 146.616 260.779 146.498 260.272 146.264C259.771 146.029 259.334 145.672 258.96 145.192C258.587 144.712 258.294 144.106 258.08 143.376C257.867 142.64 257.76 141.77 257.76 140.768C257.76 139.765 257.867 138.896 258.08 138.16C258.294 137.424 258.587 136.816 258.96 136.336C259.334 135.85 259.771 135.49 260.272 135.256C260.779 135.021 261.326 134.904 261.912 134.904C262.494 134.904 263.038 135.021 263.544 135.256C264.056 135.49 264.499 135.85 264.872 136.336C265.246 136.816 265.539 137.424 265.752 138.16C265.971 138.896 266.08 139.765 266.08 140.768ZM264.6 140.768C264.6 139.893 264.526 139.16 264.376 138.568C264.232 137.97 264.035 137.49 263.784 137.128C263.539 136.765 263.254 136.506 262.928 136.352C262.603 136.192 262.264 136.112 261.912 136.112C261.56 136.112 261.222 136.192 260.896 136.352C260.571 136.506 260.286 136.765 260.04 137.128C259.795 137.49 259.598 137.97 259.448 138.568C259.304 139.16 259.232 139.893 259.232 140.768C259.232 141.642 259.304 142.376 259.448 142.968C259.598 143.56 259.795 144.037 260.04 144.4C260.286 144.762 260.571 145.024 260.896 145.184C261.222 145.338 261.56 145.416 261.912 145.416C262.264 145.416 262.603 145.338 262.928 145.184C263.254 145.024 263.539 144.762 263.784 144.4C264.035 144.037 264.232 143.56 264.376 142.968C264.526 142.376 264.6 141.642 264.6 140.768ZM273.215 144.544C273.477 144.896 273.762 145.144 274.071 145.288C274.381 145.432 274.727 145.504 275.111 145.504C275.869 145.504 276.45 145.234 276.855 144.696C277.261 144.157 277.463 143.389 277.463 142.392C277.463 141.864 277.415 141.41 277.319 141.032C277.229 140.653 277.095 140.344 276.919 140.104C276.743 139.858 276.527 139.68 276.271 139.568C276.015 139.456 275.725 139.4 275.399 139.4C274.935 139.4 274.527 139.506 274.175 139.72C273.829 139.933 273.509 140.234 273.215 140.624L273.215 144.544ZM273.143 139.648C273.485 139.226 273.879 138.888 274.327 138.632C274.775 138.376 275.287 138.248 275.863 138.248C276.333 138.248 276.757 138.338 277.135 138.52C277.514 138.696 277.837 138.96 278.103 139.312C278.37 139.658 278.575 140.09 278.719 140.608C278.863 141.125 278.935 141.72 278.935 142.392C278.935 142.989 278.855 143.546 278.695 144.064C278.535 144.576 278.303 145.021 277.999 145.4C277.701 145.773 277.333 146.069 276.895 146.288C276.463 146.501 275.975 146.608 275.431 146.608C274.935 146.608 274.509 146.525 274.151 146.36C273.799 146.189 273.487 145.954 273.215 145.656L273.215 149.24L271.783 149.24L271.783 138.392L272.639 138.392C272.842 138.392 272.967 138.49 273.015 138.688L273.143 139.648ZM280.752 146.496L280.752 138.392L281.608 138.392C281.811 138.392 281.936 138.49 281.984 138.688L282.088 139.52C282.387 139.152 282.723 138.85 283.096 138.616C283.469 138.381 283.901 138.264 284.392 138.264C284.936 138.264 285.376 138.416 285.712 138.72C286.053 139.024 286.299 139.434 286.448 139.952C286.565 139.658 286.715 139.405 286.896 139.192C287.083 138.978 287.291 138.802 287.52 138.664C287.749 138.525 287.992 138.424 288.248 138.36C288.509 138.296 288.773 138.264 289.04 138.264C289.467 138.264 289.845 138.333 290.176 138.472C290.512 138.605 290.795 138.802 291.024 139.064C291.259 139.325 291.437 139.648 291.56 140.032C291.683 140.41 291.744 140.845 291.744 141.336L291.744 146.496L290.312 146.496L290.312 141.336C290.312 140.701 290.173 140.221 289.896 139.896C289.619 139.565 289.219 139.4 288.696 139.4C288.461 139.4 288.237 139.442 288.024 139.528C287.816 139.608 287.632 139.728 287.472 139.888C287.312 140.048 287.184 140.25 287.088 140.496C286.997 140.736 286.952 141.016 286.952 141.336L286.952 146.496L285.52 146.496L285.52 141.336C285.52 140.685 285.389 140.2 285.128 139.88C284.867 139.56 284.485 139.4 283.984 139.4C283.632 139.4 283.307 139.496 283.008 139.688C282.709 139.874 282.435 140.13 282.184 140.456L282.184 146.496L280.752 146.496ZM115.14 159.824C115.092 159.904 115.038 159.965 114.98 160.008C114.926 160.045 114.86 160.064 114.78 160.064C114.689 160.064 114.582 160.018 114.46 159.928C114.337 159.837 114.182 159.738 113.996 159.632C113.814 159.52 113.593 159.418 113.332 159.328C113.076 159.237 112.764 159.192 112.396 159.192C112.049 159.192 111.742 159.24 111.476 159.336C111.214 159.426 110.993 159.552 110.812 159.712C110.636 159.872 110.502 160.061 110.412 160.28C110.321 160.493 110.276 160.725 110.276 160.976C110.276 161.296 110.353 161.562 110.508 161.776C110.668 161.984 110.876 162.162 111.132 162.312C111.393 162.461 111.686 162.592 112.012 162.704C112.342 162.81 112.678 162.922 113.02 163.04C113.366 163.157 113.702 163.29 114.028 163.44C114.358 163.584 114.652 163.768 114.908 163.992C115.169 164.216 115.377 164.49 115.532 164.816C115.692 165.141 115.772 165.541 115.772 166.016C115.772 166.517 115.686 166.989 115.516 167.432C115.345 167.869 115.094 168.25 114.764 168.576C114.438 168.901 114.036 169.157 113.556 169.344C113.081 169.53 112.54 169.624 111.932 169.624C111.185 169.624 110.508 169.49 109.9 169.224C109.292 168.952 108.772 168.586 108.34 168.128L108.788 167.392C108.83 167.333 108.881 167.285 108.94 167.248C109.004 167.205 109.073 167.184 109.148 167.184C109.217 167.184 109.294 167.213 109.38 167.272C109.47 167.325 109.572 167.394 109.684 167.48C109.796 167.565 109.924 167.658 110.068 167.76C110.212 167.861 110.374 167.954 110.556 168.04C110.742 168.125 110.953 168.197 111.188 168.256C111.422 168.309 111.686 168.336 111.98 168.336C112.348 168.336 112.676 168.285 112.964 168.184C113.252 168.082 113.494 167.941 113.692 167.76C113.894 167.573 114.049 167.352 114.156 167.096C114.262 166.84 114.316 166.554 114.316 166.24C114.316 165.893 114.236 165.61 114.076 165.392C113.921 165.168 113.716 164.981 113.46 164.832C113.204 164.682 112.91 164.557 112.58 164.456C112.249 164.349 111.913 164.242 111.572 164.136C111.23 164.024 110.894 163.896 110.564 163.752C110.233 163.608 109.94 163.421 109.684 163.192C109.428 162.962 109.22 162.677 109.06 162.336C108.905 161.989 108.828 161.562 108.828 161.056C108.828 160.65 108.905 160.258 109.06 159.88C109.22 159.501 109.449 159.165 109.748 158.872C110.052 158.578 110.422 158.344 110.86 158.168C111.302 157.992 111.809 157.904 112.38 157.904C113.02 157.904 113.601 158.005 114.124 158.208C114.652 158.41 115.116 158.704 115.516 159.088L115.14 159.824ZM121.91 165.848C121.254 165.869 120.694 165.922 120.23 166.008C119.771 166.088 119.395 166.194 119.102 166.328C118.814 166.461 118.603 166.618 118.47 166.8C118.342 166.981 118.278 167.184 118.278 167.408C118.278 167.621 118.312 167.805 118.382 167.96C118.451 168.114 118.544 168.242 118.662 168.344C118.784 168.44 118.926 168.512 119.086 168.56C119.251 168.602 119.427 168.624 119.614 168.624C119.864 168.624 120.094 168.6 120.302 168.552C120.51 168.498 120.704 168.424 120.886 168.328C121.072 168.232 121.248 168.117 121.414 167.984C121.584 167.85 121.75 167.698 121.91 167.528L121.91 165.848ZM117.31 162.536C117.758 162.104 118.24 161.781 118.758 161.568C119.275 161.354 119.848 161.248 120.478 161.248C120.931 161.248 121.334 161.322 121.686 161.472C122.038 161.621 122.334 161.829 122.574 162.096C122.814 162.362 122.995 162.685 123.118 163.064C123.24 163.442 123.302 163.858 123.302 164.312L123.302 169.496L122.67 169.496C122.531 169.496 122.424 169.474 122.35 169.432C122.275 169.384 122.216 169.293 122.174 169.16L122.014 168.392C121.8 168.589 121.592 168.765 121.39 168.92C121.187 169.069 120.974 169.197 120.75 169.304C120.526 169.405 120.286 169.482 120.03 169.536C119.779 169.594 119.499 169.624 119.19 169.624C118.875 169.624 118.579 169.581 118.302 169.496C118.024 169.405 117.782 169.272 117.574 169.096C117.371 168.92 117.208 168.698 117.086 168.432C116.968 168.16 116.91 167.84 116.91 167.472C116.91 167.152 116.998 166.845 117.174 166.552C117.35 166.253 117.635 165.989 118.03 165.76C118.424 165.53 118.939 165.344 119.574 165.2C120.208 165.05 120.987 164.965 121.91 164.944L121.91 164.312C121.91 163.682 121.774 163.208 121.502 162.888C121.23 162.562 120.832 162.4 120.31 162.4C119.958 162.4 119.662 162.445 119.422 162.536C119.187 162.621 118.982 162.72 118.806 162.832C118.635 162.938 118.486 163.037 118.358 163.128C118.235 163.213 118.112 163.256 117.99 163.256C117.894 163.256 117.811 163.232 117.742 163.184C117.672 163.13 117.614 163.066 117.566 162.992L117.31 162.536ZM127.849 169.624C127.209 169.624 126.716 169.445 126.369 169.088C126.028 168.73 125.857 168.216 125.857 167.544L125.857 162.584L124.881 162.584C124.796 162.584 124.724 162.56 124.665 162.512C124.607 162.458 124.577 162.378 124.577 162.272L124.577 161.704L125.905 161.536L126.233 159.032C126.249 158.952 126.284 158.888 126.337 158.84C126.396 158.786 126.471 158.76 126.561 158.76L127.281 158.76L127.281 161.552L129.625 161.552L129.625 162.584L127.281 162.584L127.281 167.448C127.281 167.789 127.364 168.042 127.529 168.208C127.695 168.373 127.908 168.456 128.169 168.456C128.319 168.456 128.447 168.437 128.553 168.4C128.665 168.357 128.761 168.312 128.841 168.264C128.921 168.216 128.988 168.173 129.041 168.136C129.1 168.093 129.151 168.072 129.193 168.072C129.268 168.072 129.335 168.117 129.393 168.208L129.809 168.888C129.564 169.117 129.268 169.298 128.921 169.432C128.575 169.56 128.217 169.624 127.849 169.624ZM137.76 161.392L137.76 169.496L136.912 169.496C136.709 169.496 136.581 169.397 136.528 169.2L136.416 168.328C136.064 168.717 135.669 169.032 135.232 169.272C134.794 169.506 134.293 169.624 133.728 169.624C133.285 169.624 132.893 169.552 132.552 169.408C132.216 169.258 131.933 169.05 131.704 168.784C131.474 168.517 131.301 168.194 131.184 167.816C131.072 167.437 131.016 167.018 131.016 166.56L131.016 161.392L132.44 161.392L132.44 166.56C132.44 167.173 132.578 167.648 132.856 167.984C133.138 168.32 133.568 168.488 134.144 168.488C134.565 168.488 134.957 168.389 135.32 168.192C135.688 167.989 136.026 167.712 136.336 167.36L136.336 161.392L137.76 161.392ZM141.37 163.016C141.626 162.461 141.94 162.029 142.314 161.72C142.687 161.405 143.143 161.248 143.682 161.248C143.852 161.248 144.015 161.266 144.17 161.304C144.33 161.341 144.471 161.4 144.594 161.48L144.49 162.544C144.458 162.677 144.378 162.744 144.25 162.744C144.175 162.744 144.066 162.728 143.922 162.696C143.778 162.664 143.615 162.648 143.434 162.648C143.178 162.648 142.948 162.685 142.746 162.76C142.548 162.834 142.37 162.946 142.21 163.096C142.055 163.24 141.914 163.421 141.786 163.64C141.663 163.853 141.551 164.098 141.45 164.376L141.45 169.496L140.018 169.496L140.018 161.392L140.834 161.392C140.988 161.392 141.095 161.421 141.154 161.48C141.212 161.538 141.252 161.64 141.274 161.784L141.37 163.016ZM150.813 163.32C150.547 162.962 150.259 162.714 149.949 162.576C149.64 162.432 149.293 162.36 148.909 162.36C148.157 162.36 147.579 162.629 147.173 163.168C146.768 163.706 146.565 164.474 146.565 165.472C146.565 166 146.611 166.453 146.701 166.832C146.792 167.205 146.925 167.514 147.101 167.76C147.277 168 147.493 168.176 147.749 168.288C148.005 168.4 148.296 168.456 148.621 168.456C149.091 168.456 149.499 168.349 149.845 168.136C150.197 167.922 150.52 167.621 150.813 167.232L150.813 163.32ZM152.237 157.712L152.237 169.496L151.389 169.496C151.187 169.496 151.059 169.397 151.005 169.2L150.877 168.216C150.531 168.632 150.136 168.968 149.693 169.224C149.251 169.48 148.739 169.608 148.157 169.608C147.693 169.608 147.272 169.52 146.893 169.344C146.515 169.162 146.192 168.898 145.925 168.552C145.659 168.205 145.453 167.773 145.309 167.256C145.165 166.738 145.093 166.144 145.093 165.472C145.093 164.874 145.173 164.32 145.333 163.808C145.493 163.29 145.723 162.842 146.021 162.464C146.32 162.085 146.685 161.789 147.117 161.576C147.555 161.357 148.045 161.248 148.589 161.248C149.085 161.248 149.509 161.333 149.861 161.504C150.219 161.669 150.536 161.901 150.813 162.2L150.813 157.712L152.237 157.712ZM158.878 165.848C158.222 165.869 157.662 165.922 157.198 166.008C156.74 166.088 156.364 166.194 156.07 166.328C155.782 166.461 155.572 166.618 155.438 166.8C155.31 166.981 155.246 167.184 155.246 167.408C155.246 167.621 155.281 167.805 155.35 167.96C155.42 168.114 155.513 168.242 155.63 168.344C155.753 168.44 155.894 168.512 156.054 168.56C156.22 168.602 156.396 168.624 156.582 168.624C156.833 168.624 157.062 168.6 157.27 168.552C157.478 168.498 157.673 168.424 157.854 168.328C158.041 168.232 158.217 168.117 158.382 167.984C158.553 167.85 158.718 167.698 158.878 167.528L158.878 165.848ZM154.278 162.536C154.726 162.104 155.209 161.781 155.726 161.568C156.244 161.354 156.817 161.248 157.446 161.248C157.9 161.248 158.302 161.322 158.654 161.472C159.006 161.621 159.302 161.829 159.542 162.096C159.782 162.362 159.964 162.685 160.086 163.064C160.209 163.442 160.27 163.858 160.27 164.312L160.27 169.496L159.638 169.496C159.5 169.496 159.393 169.474 159.318 169.432C159.244 169.384 159.185 169.293 159.142 169.16L158.982 168.392C158.769 168.589 158.561 168.765 158.358 168.92C158.156 169.069 157.942 169.197 157.718 169.304C157.494 169.405 157.254 169.482 156.998 169.536C156.748 169.594 156.468 169.624 156.158 169.624C155.844 169.624 155.548 169.581 155.27 169.496C154.993 169.405 154.75 169.272 154.542 169.096C154.34 168.92 154.177 168.698 154.054 168.432C153.937 168.16 153.878 167.84 153.878 167.472C153.878 167.152 153.966 166.845 154.142 166.552C154.318 166.253 154.604 165.989 154.998 165.76C155.393 165.53 155.908 165.344 156.542 165.2C157.177 165.05 157.956 164.965 158.878 164.944L158.878 164.312C158.878 163.682 158.742 163.208 158.47 162.888C158.198 162.562 157.801 162.4 157.278 162.4C156.926 162.4 156.63 162.445 156.39 162.536C156.156 162.621 155.95 162.72 155.774 162.832C155.604 162.938 155.454 163.037 155.326 163.128C155.204 163.213 155.081 163.256 154.958 163.256C154.862 163.256 154.78 163.232 154.71 163.184C154.641 163.13 154.582 163.066 154.534 162.992L154.278 162.536ZM169.244 161.392L164.724 171.888C164.676 171.994 164.615 172.08 164.54 172.144C164.471 172.208 164.361 172.24 164.212 172.24L163.156 172.24L164.636 169.024L161.292 161.392L162.524 161.392C162.647 161.392 162.743 161.424 162.812 161.488C162.887 161.546 162.937 161.613 162.964 161.688L165.132 166.792C165.217 167.016 165.289 167.25 165.348 167.496C165.423 167.245 165.503 167.008 165.588 166.784L167.692 161.688C167.724 161.602 167.777 161.533 167.852 161.48C167.932 161.421 168.02 161.392 168.116 161.392L169.244 161.392ZM182.589 167.128C182.674 167.128 182.749 167.162 182.813 167.232L183.429 167.896C182.96 168.44 182.389 168.864 181.717 169.168C181.05 169.472 180.242 169.624 179.293 169.624C178.472 169.624 177.725 169.482 177.053 169.2C176.381 168.912 175.808 168.512 175.333 168C174.858 167.482 174.49 166.864 174.229 166.144C173.968 165.424 173.837 164.632 173.837 163.768C173.837 162.904 173.973 162.112 174.245 161.392C174.517 160.672 174.898 160.053 175.389 159.536C175.885 159.018 176.477 158.618 177.165 158.336C177.853 158.048 178.613 157.904 179.445 157.904C180.261 157.904 180.981 158.034 181.605 158.296C182.229 158.557 182.778 158.912 183.253 159.36L182.741 160.072C182.709 160.125 182.666 160.17 182.613 160.208C182.565 160.24 182.498 160.256 182.413 160.256C182.317 160.256 182.2 160.205 182.061 160.104C181.922 159.997 181.741 159.88 181.517 159.752C181.293 159.624 181.013 159.509 180.677 159.408C180.341 159.301 179.928 159.248 179.437 159.248C178.845 159.248 178.304 159.352 177.813 159.56C177.322 159.762 176.898 160.058 176.541 160.448C176.189 160.837 175.914 161.312 175.717 161.872C175.52 162.432 175.421 163.064 175.421 163.768C175.421 164.482 175.522 165.12 175.725 165.68C175.933 166.24 176.213 166.714 176.565 167.104C176.922 167.488 177.341 167.781 177.821 167.984C178.306 168.186 178.829 168.288 179.389 168.288C179.73 168.288 180.037 168.269 180.309 168.232C180.586 168.189 180.84 168.125 181.069 168.04C181.304 167.954 181.52 167.848 181.717 167.72C181.92 167.586 182.12 167.429 182.317 167.248C182.408 167.168 182.498 167.128 182.589 167.128ZM186.365 157.712L186.365 169.496L184.941 169.496L184.941 157.712L186.365 157.712ZM192.09 161.264C192.682 161.264 193.215 161.362 193.69 161.56C194.165 161.757 194.57 162.037 194.906 162.4C195.242 162.762 195.498 163.202 195.674 163.72C195.855 164.232 195.946 164.805 195.946 165.44C195.946 166.08 195.855 166.656 195.674 167.168C195.498 167.68 195.242 168.117 194.906 168.48C194.57 168.842 194.165 169.122 193.69 169.32C193.215 169.512 192.682 169.608 192.09 169.608C191.493 169.608 190.954 169.512 190.474 169.32C189.999 169.122 189.594 168.842 189.258 168.48C188.922 168.117 188.663 167.68 188.482 167.168C188.306 166.656 188.218 166.08 188.218 165.44C188.218 164.805 188.306 164.232 188.482 163.72C188.663 163.202 188.922 162.762 189.258 162.4C189.594 162.037 189.999 161.757 190.474 161.56C190.954 161.362 191.493 161.264 192.09 161.264ZM192.09 168.496C192.89 168.496 193.487 168.229 193.882 167.696C194.277 167.157 194.474 166.408 194.474 165.448C194.474 164.482 194.277 163.73 193.882 163.192C193.487 162.653 192.89 162.384 192.09 162.384C191.685 162.384 191.33 162.453 191.026 162.592C190.727 162.73 190.477 162.93 190.274 163.192C190.077 163.453 189.927 163.776 189.826 164.16C189.73 164.538 189.682 164.968 189.682 165.448C189.682 166.408 189.879 167.157 190.274 167.696C190.674 168.229 191.279 168.496 192.09 168.496ZM202.472 162.728C202.408 162.845 202.309 162.904 202.176 162.904C202.096 162.904 202.005 162.874 201.904 162.816C201.803 162.757 201.677 162.693 201.528 162.624C201.384 162.549 201.211 162.482 201.008 162.424C200.805 162.36 200.565 162.328 200.288 162.328C200.048 162.328 199.832 162.36 199.64 162.424C199.448 162.482 199.283 162.565 199.144 162.672C199.011 162.778 198.907 162.904 198.832 163.048C198.763 163.186 198.728 163.338 198.728 163.504C198.728 163.712 198.787 163.885 198.904 164.024C199.027 164.162 199.187 164.282 199.384 164.384C199.581 164.485 199.805 164.576 200.056 164.656C200.307 164.73 200.563 164.813 200.824 164.904C201.091 164.989 201.349 165.085 201.6 165.192C201.851 165.298 202.075 165.432 202.272 165.592C202.469 165.752 202.627 165.949 202.744 166.184C202.867 166.413 202.928 166.69 202.928 167.016C202.928 167.389 202.861 167.736 202.728 168.056C202.595 168.37 202.397 168.645 202.136 168.88C201.875 169.109 201.555 169.29 201.176 169.424C200.797 169.557 200.36 169.624 199.864 169.624C199.299 169.624 198.787 169.533 198.328 169.352C197.869 169.165 197.48 168.928 197.16 168.64L197.496 168.096C197.539 168.026 197.589 167.973 197.648 167.936C197.707 167.898 197.781 167.88 197.872 167.88C197.968 167.88 198.069 167.917 198.176 167.992C198.283 168.066 198.411 168.149 198.56 168.24C198.715 168.33 198.901 168.413 199.12 168.488C199.339 168.562 199.611 168.6 199.936 168.6C200.213 168.6 200.456 168.565 200.664 168.496C200.872 168.421 201.045 168.322 201.184 168.2C201.323 168.077 201.424 167.936 201.488 167.776C201.557 167.616 201.592 167.445 201.592 167.264C201.592 167.04 201.531 166.856 201.408 166.712C201.291 166.562 201.133 166.437 200.936 166.336C200.739 166.229 200.512 166.138 200.256 166.064C200.005 165.984 199.747 165.901 199.48 165.816C199.219 165.73 198.96 165.634 198.704 165.528C198.453 165.416 198.229 165.277 198.032 165.112C197.835 164.946 197.675 164.744 197.552 164.504C197.435 164.258 197.376 163.962 197.376 163.616C197.376 163.306 197.44 163.01 197.568 162.728C197.696 162.44 197.883 162.189 198.128 161.976C198.373 161.757 198.675 161.584 199.032 161.456C199.389 161.328 199.797 161.264 200.256 161.264C200.789 161.264 201.267 161.349 201.688 161.52C202.115 161.685 202.483 161.914 202.792 162.208L202.472 162.728ZM210.098 164.56C210.098 164.229 210.05 163.928 209.954 163.656C209.863 163.378 209.727 163.141 209.546 162.944C209.37 162.741 209.154 162.586 208.898 162.48C208.642 162.368 208.351 162.312 208.026 162.312C207.343 162.312 206.802 162.512 206.402 162.912C206.007 163.306 205.762 163.856 205.666 164.56L210.098 164.56ZM211.25 168.36C211.074 168.573 210.863 168.76 210.618 168.92C210.373 169.074 210.109 169.202 209.826 169.304C209.549 169.405 209.261 169.48 208.962 169.528C208.663 169.581 208.367 169.608 208.074 169.608C207.514 169.608 206.997 169.514 206.522 169.328C206.053 169.136 205.645 168.858 205.298 168.496C204.957 168.128 204.69 167.674 204.498 167.136C204.306 166.597 204.21 165.978 204.21 165.28C204.21 164.714 204.295 164.186 204.466 163.696C204.642 163.205 204.893 162.781 205.218 162.424C205.543 162.061 205.941 161.778 206.41 161.576C206.879 161.368 207.407 161.264 207.994 161.264C208.479 161.264 208.927 161.346 209.338 161.512C209.754 161.672 210.111 161.906 210.41 162.216C210.714 162.52 210.951 162.898 211.122 163.352C211.293 163.8 211.378 164.312 211.378 164.888C211.378 165.112 211.354 165.261 211.306 165.336C211.258 165.41 211.167 165.448 211.034 165.448L205.618 165.448C205.634 165.96 205.703 166.405 205.826 166.784C205.954 167.162 206.13 167.48 206.354 167.736C206.578 167.986 206.845 168.176 207.154 168.304C207.463 168.426 207.81 168.488 208.194 168.488C208.551 168.488 208.858 168.448 209.114 168.368C209.375 168.282 209.599 168.192 209.786 168.096C209.973 168 210.127 167.912 210.25 167.832C210.378 167.746 210.487 167.704 210.578 167.704C210.695 167.704 210.786 167.749 210.85 167.84L211.25 168.36ZM218.407 163.32C218.14 162.962 217.852 162.714 217.543 162.576C217.234 162.432 216.887 162.36 216.503 162.36C215.751 162.36 215.172 162.629 214.767 163.168C214.362 163.706 214.159 164.474 214.159 165.472C214.159 166 214.204 166.453 214.295 166.832C214.386 167.205 214.519 167.514 214.695 167.76C214.871 168 215.087 168.176 215.343 168.288C215.599 168.4 215.89 168.456 216.215 168.456C216.684 168.456 217.092 168.349 217.439 168.136C217.791 167.922 218.114 167.621 218.407 167.232L218.407 163.32ZM219.831 157.712L219.831 169.496L218.983 169.496C218.78 169.496 218.652 169.397 218.599 169.2L218.471 168.216C218.124 168.632 217.73 168.968 217.287 169.224C216.844 169.48 216.332 169.608 215.751 169.608C215.287 169.608 214.866 169.52 214.487 169.344C214.108 169.162 213.786 168.898 213.519 168.552C213.252 168.205 213.047 167.773 212.903 167.256C212.759 166.738 212.687 166.144 212.687 165.472C212.687 164.874 212.767 164.32 212.927 163.808C213.087 163.29 213.316 162.842 213.615 162.464C213.914 162.085 214.279 161.789 214.711 161.576C215.148 161.357 215.639 161.248 216.183 161.248C216.679 161.248 217.103 161.333 217.455 161.504C217.812 161.669 218.13 161.901 218.407 162.2L218.407 157.712L219.831 157.712Z" fill="#545454"/>
</svg>
