<svg width="308" height="79" viewBox="0 0 308 79" fill="none" xmlns="http://www.w3.org/2000/svg">
<path d="M7.08 69.8022L7.08 52.1022L0.119998 52.1022L0.119998 48.8022L17.94 48.8022L17.94 52.1022L10.98 52.1022L10.98 69.8022L7.08 69.8022ZM29.5969 53.6023C30.8769 53.6023 32.0169 53.8523 33.0169 54.3523C34.0369 54.8523 34.8369 55.6223 35.4169 56.6623C35.9969 57.6823 36.2869 59.0023 36.2869 60.6223L36.2869 69.8023L32.5369 69.8023L32.5369 61.1023C32.5369 59.6823 32.1969 58.6223 31.5169 57.9223C30.8569 57.2223 29.9269 56.8723 28.7269 56.8723C27.8469 56.8723 27.0669 57.0523 26.3869 57.4123C25.7069 57.7723 25.1769 58.3123 24.7969 59.0322C24.4369 59.7323 24.2569 60.6223 24.2569 61.7023L24.2569 69.8023L20.5069 69.8022L20.5069 47.5422L24.2569 47.5422L24.2569 58.1022L23.4469 56.7822C24.0069 55.7622 24.8169 54.9822 25.8769 54.4422C26.9569 53.8823 28.1969 53.6023 29.5969 53.6023ZM48.6033 70.0123C46.8233 70.0123 45.2633 69.6623 43.9233 68.9623C42.6033 68.2423 41.5733 67.2623 40.8333 66.0223C40.1133 64.7823 39.7533 63.3723 39.7533 61.7923C39.7533 60.1923 40.1033 58.7823 40.8033 57.5623C41.5233 56.3223 42.5033 55.3523 43.7433 54.6523C45.0033 53.9523 46.4333 53.6023 48.0333 53.6023C49.5933 53.6023 50.9833 53.9423 52.2033 54.6223C53.4233 55.3023 54.3833 56.2623 55.0833 57.5023C55.7833 58.7423 56.1333 60.2023 56.1333 61.8823C56.1333 62.0423 56.1233 62.2223 56.1033 62.4223C56.1033 62.6223 56.0933 62.8123 56.0733 62.9923L42.7233 62.9923L42.7233 60.5023L54.0933 60.5023L52.6233 61.2823C52.6433 60.3623 52.4533 59.5523 52.0533 58.8523C51.6533 58.1523 51.1033 57.6023 50.4033 57.2023C49.7233 56.8023 48.9333 56.6023 48.0333 56.6023C47.1133 56.6023 46.3033 56.8023 45.6033 57.2023C44.9233 57.6023 44.3833 58.1623 43.9833 58.8823C43.6033 59.5823 43.4133 60.4123 43.4133 61.3723L43.4133 61.9723C43.4133 62.9323 43.6333 63.7823 44.0733 64.5223C44.5133 65.2623 45.1333 65.8323 45.9333 66.2323C46.7333 66.6323 47.6533 66.8323 48.6933 66.8323C49.5933 66.8323 50.4033 66.6923 51.1233 66.4123C51.8433 66.1323 52.4833 65.6923 53.0433 65.0923L55.0533 67.4023C54.3333 68.2423 53.4233 68.8923 52.3233 69.3523C51.2433 69.7923 50.0033 70.0123 48.6033 70.0123ZM68.3864 69.8023L68.3864 48.8023L77.5664 48.8023C79.8464 48.8023 81.8464 49.2423 83.5664 50.1223C85.2864 51.0023 86.6264 52.2223 87.5864 53.7823C88.5464 55.3423 89.0264 57.1823 89.0264 59.3023C89.0264 61.4023 88.5464 63.2423 87.5864 64.8223C86.6264 66.3823 85.2864 67.6023 83.5664 68.4823C81.8464 69.3623 79.8464 69.8023 77.5664 69.8023L68.3864 69.8023ZM72.2864 66.5023L77.3864 66.5023C78.9664 66.5023 80.3264 66.2023 81.4664 65.6023C82.6264 65.0023 83.5164 64.1623 84.1364 63.0823C84.7764 62.0023 85.0964 60.7423 85.0964 59.3023C85.0964 57.8423 84.7764 56.5823 84.1364 55.5223C83.5164 54.4423 82.6264 53.6023 81.4664 53.0023C80.3264 52.4023 78.9664 52.1023 77.3864 52.1023L72.2864 52.1023L72.2864 66.5023ZM100.012 70.0123C98.3716 70.0123 96.9116 69.6623 95.6316 68.9623C94.3516 68.2423 93.3416 67.2623 92.6016 66.0223C91.8616 64.7823 91.4916 63.3723 91.4916 61.7923C91.4916 60.1923 91.8616 58.7823 92.6016 57.5623C93.3416 56.3223 94.3516 55.3523 95.6316 54.6523C96.9116 53.9523 98.3716 53.6023 100.012 53.6023C101.672 53.6023 103.142 53.9523 104.422 54.6523C105.722 55.3523 106.732 56.3123 107.452 57.5323C108.192 58.7523 108.562 60.1723 108.562 61.7923C108.562 63.3723 108.192 64.7823 107.452 66.0223C106.732 67.2623 105.722 68.2423 104.422 68.9623C103.142 69.6623 101.672 70.0123 100.012 70.0123ZM100.012 66.8023C100.932 66.8023 101.752 66.6023 102.472 66.2023C103.192 65.8023 103.752 65.2223 104.152 64.4623C104.572 63.7023 104.782 62.8123 104.782 61.7923C104.782 60.7523 104.572 59.8623 104.152 59.1223C103.752 58.3623 103.192 57.7823 102.472 57.3823C101.752 56.9823 100.942 56.7823 100.042 56.7823C99.1216 56.7823 98.3016 56.9823 97.5816 57.3823C96.8816 57.7823 96.3216 58.3623 95.9016 59.1223C95.4816 59.8623 95.2716 60.7523 95.2716 61.7923C95.2716 62.8123 95.4816 63.7023 95.9016 64.4623C96.3216 65.2223 96.8816 65.8023 97.5816 66.2023C98.3016 66.6023 99.1116 66.8023 100.012 66.8023ZM119.497 70.0123C117.817 70.0123 116.317 69.6623 114.997 68.9623C113.697 68.2423 112.677 67.2623 111.937 66.0223C111.197 64.7823 110.827 63.3723 110.827 61.7923C110.827 60.1923 111.197 58.7823 111.937 57.5623C112.677 56.3223 113.697 55.3523 114.997 54.6523C116.317 53.9523 117.817 53.6023 119.497 53.6023C121.057 53.6023 122.427 53.9223 123.607 54.5623C124.807 55.1823 125.717 56.1023 126.337 57.3223L123.457 59.0023C122.977 58.2423 122.387 57.6823 121.687 57.3223C121.007 56.9623 120.267 56.7823 119.467 56.7823C118.547 56.7823 117.717 56.9823 116.977 57.3823C116.237 57.7823 115.657 58.3623 115.237 59.1223C114.817 59.8623 114.607 60.7523 114.607 61.7923C114.607 62.8323 114.817 63.7323 115.237 64.4923C115.657 65.2323 116.237 65.8023 116.977 66.2023C117.717 66.6023 118.547 66.8023 119.467 66.8023C120.267 66.8023 121.007 66.6223 121.687 66.2623C122.387 65.9023 122.977 65.3423 123.457 64.5823L126.337 66.2623C125.717 67.4623 124.807 68.3923 123.607 69.0523C122.427 69.6923 121.057 70.0123 119.497 70.0123ZM135.814 70.0123C134.054 70.0123 132.694 69.5623 131.734 68.6623C130.774 67.7423 130.294 66.3923 130.294 64.6123L130.294 50.2423L134.044 50.2423L134.044 64.5223C134.044 65.2823 134.234 65.8723 134.614 66.2923C135.014 66.7123 135.564 66.9223 136.264 66.9223C137.104 66.9223 137.804 66.7023 138.364 66.2623L139.414 68.9323C138.974 69.2923 138.434 69.5623 137.794 69.7423C137.154 69.9223 136.494 70.0123 135.814 70.0123ZM127.654 56.9023L127.654 53.9023L138.334 53.9023L138.334 56.9023L127.654 56.9023ZM149.172 70.0123C147.532 70.0123 146.072 69.6623 144.792 68.9623C143.512 68.2423 142.502 67.2623 141.762 66.0223C141.022 64.7823 140.652 63.3723 140.652 61.7923C140.652 60.1923 141.022 58.7823 141.762 57.5623C142.502 56.3223 143.512 55.3523 144.792 54.6523C146.072 53.9523 147.532 53.6023 149.172 53.6023C150.832 53.6023 152.302 53.9523 153.582 54.6523C154.882 55.3523 155.892 56.3123 156.612 57.5323C157.352 58.7523 157.722 60.1723 157.722 61.7923C157.722 63.3723 157.352 64.7823 156.612 66.0223C155.892 67.2623 154.882 68.2423 153.582 68.9623C152.302 69.6623 150.832 70.0123 149.172 70.0123ZM149.172 66.8023C150.092 66.8023 150.912 66.6023 151.632 66.2023C152.352 65.8023 152.912 65.2223 153.312 64.4623C153.732 63.7023 153.942 62.8123 153.942 61.7923C153.942 60.7523 153.732 59.8623 153.312 59.1223C152.912 58.3623 152.352 57.7823 151.632 57.3823C150.912 56.9823 150.102 56.7823 149.202 56.7823C148.282 56.7823 147.462 56.9823 146.742 57.3823C146.042 57.7823 145.482 58.3623 145.062 59.1223C144.642 59.8623 144.432 60.7523 144.432 61.7923C144.432 62.8123 144.642 63.7023 145.062 64.4623C145.482 65.2223 146.042 65.8023 146.742 66.2023C147.462 66.6023 148.272 66.8023 149.172 66.8023ZM161.308 69.8023L161.308 53.7823L164.878 53.7823L164.878 58.1923L164.458 56.9023C164.938 55.8223 165.688 55.0023 166.708 54.4423C167.748 53.8823 169.038 53.6023 170.578 53.6023L170.578 57.1723C170.418 57.1323 170.268 57.1123 170.128 57.1123C169.988 57.0923 169.848 57.0823 169.708 57.0823C168.288 57.0823 167.158 57.5023 166.318 58.3423C165.478 59.1623 165.058 60.3923 165.058 62.0323L165.058 69.8023L161.308 69.8023ZM182.486 69.8023L182.486 66.5623L182.276 65.8723L182.276 60.2023C182.276 59.1023 181.946 58.2523 181.286 57.6523C180.626 57.0323 179.626 56.7223 178.286 56.7223C177.386 56.7223 176.496 56.8623 175.616 57.1423C174.756 57.4223 174.026 57.8123 173.426 58.3123L171.956 55.5823C172.816 54.9223 173.836 54.4323 175.016 54.1123C176.216 53.7723 177.456 53.6023 178.736 53.6023C181.056 53.6023 182.846 54.1623 184.106 55.2823C185.386 56.3823 186.026 58.0923 186.026 60.4123L186.026 69.8023L182.486 69.8023ZM177.446 70.0123C176.246 70.0123 175.196 69.8123 174.296 69.4123C173.396 68.9923 172.696 68.4223 172.196 67.7023C171.716 66.9623 171.476 66.1323 171.476 65.2123C171.476 64.3123 171.686 63.5023 172.106 62.7823C172.546 62.0623 173.256 61.4923 174.236 61.0723C175.216 60.6523 176.516 60.4423 178.136 60.4423L182.786 60.4423L182.786 62.9323L178.406 62.9323C177.126 62.9323 176.266 63.1423 175.826 63.5623C175.386 63.9623 175.166 64.4623 175.166 65.0623C175.166 65.7423 175.436 66.2823 175.976 66.6823C176.516 67.0823 177.266 67.2823 178.226 67.2823C179.146 67.2823 179.966 67.0723 180.686 66.6523C181.426 66.2323 181.956 65.6123 182.276 64.7923L182.906 67.0423C182.546 67.9823 181.896 68.7123 180.956 69.2323C180.036 69.7523 178.866 70.0123 177.446 70.0123ZM196.869 70.0123C195.109 70.0123 193.749 69.5623 192.789 68.6623C191.829 67.7423 191.349 66.3923 191.349 64.6123L191.349 50.2423L195.099 50.2423L195.099 64.5223C195.099 65.2823 195.289 65.8723 195.669 66.2923C196.069 66.7123 196.619 66.9223 197.319 66.9223C198.159 66.9223 198.859 66.7023 199.419 66.2623L200.469 68.9323C200.029 69.2923 199.489 69.5623 198.849 69.7423C198.209 69.9223 197.549 70.0123 196.869 70.0123ZM188.709 56.9023L188.709 53.9023L199.389 53.9023L199.389 56.9023L188.709 56.9023ZM210.556 70.0123C208.776 70.0123 207.216 69.6623 205.876 68.9623C204.556 68.2423 203.526 67.2623 202.786 66.0223C202.066 64.7823 201.706 63.3723 201.706 61.7923C201.706 60.1923 202.056 58.7823 202.756 57.5623C203.476 56.3223 204.456 55.3523 205.696 54.6523C206.956 53.9523 208.386 53.6023 209.986 53.6023C211.546 53.6023 212.936 53.9423 214.156 54.6223C215.376 55.3023 216.336 56.2623 217.036 57.5023C217.736 58.7423 218.086 60.2023 218.086 61.8823C218.086 62.0423 218.076 62.2223 218.056 62.4223C218.056 62.6223 218.046 62.8123 218.026 62.9923L204.676 62.9923L204.676 60.5023L216.046 60.5023L214.576 61.2823C214.596 60.3623 214.406 59.5523 214.006 58.8523C213.606 58.1523 213.056 57.6023 212.356 57.2023C211.676 56.8023 210.886 56.6023 209.986 56.6023C209.066 56.6023 208.256 56.8023 207.556 57.2023C206.876 57.6023 206.336 58.1623 205.936 58.8823C205.556 59.5823 205.366 60.4123 205.366 61.3723L205.366 61.9723C205.366 62.9323 205.586 63.7823 206.026 64.5223C206.466 65.2623 207.086 65.8323 207.886 66.2323C208.686 66.6323 209.606 66.8323 210.646 66.8323C211.546 66.8323 212.356 66.6923 213.076 66.4123C213.796 66.1323 214.436 65.6923 214.996 65.0923L217.006 67.4023C216.286 68.2423 215.376 68.8923 214.276 69.3523C213.196 69.7923 211.956 70.0123 210.556 70.0123ZM240.06 70.1023C238.46 70.1023 236.97 69.8423 235.59 69.3223C234.23 68.7823 233.04 68.0323 232.02 67.0723C231.02 66.0923 230.24 64.9423 229.68 63.6223C229.12 62.3023 228.84 60.8623 228.84 59.3023C228.84 57.7423 229.12 56.3023 229.68 54.9823C230.24 53.6623 231.03 52.5223 232.05 51.5623C233.07 50.5823 234.26 49.8323 235.62 49.3123C236.98 48.7723 238.47 48.5023 240.09 48.5023C241.81 48.5023 243.38 48.8023 244.8 49.4023C246.22 49.9823 247.42 50.8523 248.4 52.0123L245.88 54.3823C245.12 53.5623 244.27 52.9523 243.33 52.5523C242.39 52.1323 241.37 51.9223 240.27 51.9223C239.17 51.9223 238.16 52.1023 237.24 52.4623C236.34 52.8223 235.55 53.3323 234.87 53.9923C234.21 54.6523 233.69 55.4323 233.31 56.3323C232.95 57.2323 232.77 58.2223 232.77 59.3023C232.77 60.3823 232.95 61.3723 233.31 62.2723C233.69 63.1723 234.21 63.9523 234.87 64.6123C235.55 65.2723 236.34 65.7823 237.24 66.1423C238.16 66.5023 239.17 66.6823 240.27 66.6823C241.37 66.6823 242.39 66.4823 243.33 66.0823C244.27 65.6623 245.12 65.0323 245.88 64.1923L248.4 66.5923C247.42 67.7323 246.22 68.6023 244.8 69.2023C243.38 69.8023 241.8 70.1023 240.06 70.1023ZM251.776 69.8023L251.776 53.7823L255.346 53.7823L255.346 58.1923L254.926 56.9023C255.406 55.8223 256.156 55.0023 257.176 54.4423C258.216 53.8823 259.506 53.6023 261.046 53.6023L261.046 57.1723C260.886 57.1323 260.736 57.1123 260.596 57.1123C260.456 57.0923 260.316 57.0823 260.176 57.0823C258.756 57.0823 257.626 57.5023 256.786 58.3423C255.946 59.1623 255.526 60.3923 255.526 62.0323L255.526 69.8023L251.776 69.8023ZM271.611 70.0123C269.831 70.0123 268.271 69.6623 266.931 68.9623C265.611 68.2423 264.581 67.2623 263.841 66.0223C263.121 64.7823 262.761 63.3723 262.761 61.7923C262.761 60.1923 263.111 58.7823 263.811 57.5623C264.531 56.3223 265.511 55.3523 266.751 54.6523C268.011 53.9523 269.441 53.6023 271.041 53.6023C272.601 53.6023 273.991 53.9423 275.211 54.6223C276.431 55.3023 277.391 56.2623 278.091 57.5023C278.791 58.7423 279.141 60.2023 279.141 61.8823C279.141 62.0423 279.131 62.2223 279.111 62.4223C279.111 62.6223 279.101 62.8123 279.081 62.9923L265.731 62.9923L265.731 60.5023L277.101 60.5023L275.631 61.2823C275.651 60.3623 275.461 59.5523 275.061 58.8523C274.661 58.1523 274.111 57.6023 273.411 57.2023C272.731 56.8023 271.941 56.6023 271.041 56.6023C270.121 56.6023 269.311 56.8023 268.611 57.2023C267.931 57.6023 267.391 58.1623 266.991 58.8823C266.611 59.5823 266.421 60.4123 266.421 61.3723L266.421 61.9723C266.421 62.9323 266.641 63.7823 267.081 64.5223C267.521 65.2623 268.141 65.8323 268.941 66.2323C269.741 66.6323 270.661 66.8323 271.701 66.8323C272.601 66.8323 273.411 66.6923 274.131 66.4123C274.851 66.1323 275.491 65.6923 276.051 65.0923L278.061 67.4023C277.341 68.2423 276.431 68.8923 275.331 69.3523C274.251 69.7923 273.011 70.0123 271.611 70.0123ZM285.99 69.8023L280.11 53.7823L283.65 53.7823L288.69 67.9123L287.01 67.9123L292.29 53.7823L295.44 53.7823L300.57 67.9123L298.92 67.9123L304.11 53.7823L307.44 53.7823L301.53 69.8023L297.93 69.8023L293.25 57.2923L294.36 57.2923L289.59 69.8023L285.99 69.8023Z" fill="white"/>
<rect x="0.25" y="0.555664" width="84.4028" height="26.3784" stroke="#2B78CA" stroke-width="0.5"/>
<path d="M21.9663 9.85487L18.7183 9.85487L18.7183 18.7449L17.3673 18.7449L17.3673 9.85487L14.1123 9.85487L14.1123 8.71387L21.9663 8.71387L21.9663 9.85487ZM35.4528 17.6389L35.4458 18.7449L29.2648 18.7449L29.2648 8.71388L35.4458 8.71388L35.4458 9.81988L30.6228 9.81988L30.6228 13.1519L34.5288 13.1519L34.5288 14.2159L30.6228 14.2159L30.6228 17.6389L35.4528 17.6389ZM48.4819 15.0209L46.9069 10.9399C46.8602 10.8185 46.8112 10.6785 46.7599 10.5199C46.7086 10.3565 46.6596 10.1839 46.6129 10.0019C46.5149 10.3799 46.4146 10.6949 46.3119 10.9469L44.7369 15.0209L48.4819 15.0209ZM51.3099 18.7449L50.2599 18.7449C50.1386 18.7449 50.0406 18.7145 49.9659 18.6539C49.8912 18.5932 49.8352 18.5162 49.7979 18.4229L48.8599 16.0009L44.3589 16.0009L43.4209 18.4229C43.3929 18.5069 43.3392 18.5815 43.2599 18.6469C43.1806 18.7122 43.0826 18.7449 42.9659 18.7449L41.9159 18.7449L45.9269 8.71388L47.2989 8.71388L51.3099 18.7449ZM68.8765 8.71388L68.8765 18.7449L67.6865 18.7449L67.6865 11.3739C67.6865 11.2759 67.6888 11.1709 67.6935 11.0589C67.7028 10.9469 67.7122 10.8325 67.7215 10.7159L64.2775 16.9879C64.1702 17.1979 64.0068 17.3029 63.7875 17.3029L63.5915 17.3029C63.3722 17.3029 63.2088 17.1979 63.1015 16.9879L59.5875 10.6879C59.6155 10.9352 59.6295 11.1639 59.6295 11.3739L59.6295 18.7449L58.4395 18.7449L58.4395 8.71388L59.4405 8.71388C59.5618 8.71388 59.6552 8.72555 59.7205 8.74888C59.7858 8.77221 59.8488 8.83755 59.9095 8.94488L63.3745 15.1189C63.4305 15.2309 63.4842 15.3475 63.5355 15.4689C63.5915 15.5902 63.6428 15.7139 63.6895 15.8399C63.7362 15.7139 63.7852 15.5902 63.8365 15.4689C63.8878 15.3429 63.9438 15.2239 64.0045 15.1119L67.4065 8.94488C67.4625 8.83755 67.5232 8.77222 67.5885 8.74888C67.6585 8.72555 67.7542 8.71388 67.8755 8.71388L68.8765 8.71388Z" fill="white"/>
</svg>
